<svg xmlns="http://www.w3.org/2000/svg" width="1280" height="775" viewBox="0 0 128000 77500" shape-rendering="geometricPrecision" text-rendering="geometricPrecision" image-rendering="optimizeQuality" fill-rule="evenodd" clip-rule="evenodd"><defs><style>.str10{stroke-width:100.235}.str10,.str9{stroke:#2b2a29}.str9,.str5{stroke-width:76.3788}.str5{stroke:#000}.str15{stroke:#4d2626;stroke-width:604.916}.str6{stroke:#1f1b20}.str6,.str0{stroke-width:100.235}.str0{stroke:#000}.str1,.str11{stroke:#1f1b20;stroke-width:100.235}.str12{stroke:#2b2a29;stroke-width:100.235}.str13{stroke:#000}.str13,.str16{stroke-width:100.235}.str16{stroke:#4d2626}.str14{stroke:#80dfff}.str14,.str4{stroke-width:100.235}.str4{stroke:#000}.str8{stroke:#80dfff}.str8,.str3{stroke-width:100.235}.str3{stroke:#1f1b20}.str2,.str7{stroke:#000;stroke-width:100.235}.fil0,.fil2{fill:none}.fil2{fill-rule:nonzero}.fil7{fill:#2b2a29}.fil5{fill:#5d5d52}.fil1{fill:#f0dbce}.fil6{fill:#2b2a29;fill-rule:nonzero}.fil4,.fil3{fill:#5d5d52;fill-rule:nonzero}</style></defs><g id="L2"><path id="Bounds" class="fil0" d="M128000 0v77500H0V0z"/></g><g id="L1"><g id="_804547408"><path id="Contour" class="fil1" d="M47754 65612h15977v-2618l16515-14V9155h-729V8008H52961v423h-1210v1207h-363l1 7817-3634-7z"/><path class="fil2 str0" d="M53838 46225h-4038v-4028h4038z"/><path class="fil2 str0" d="M52815 45473h-2019c-334 0-605-270-605-604v-1678c0-334 271-604 605-604h2019c335 0 606 270 606 604v1678c0 334-271 604-606 604z"/><path class="fil2 str0" d="M52129 44721c0-185-151-335-336-335-186 0-337 150-337 335 0 186 151 336 337 336 185 0 336-150 336-336zM51793 46064v-672M52115 45688h-673M51254 53099c0 278-226 503-505 503h-672v-2483h672c279 0 505 225 505 503v1477zM52815 52736c186 0 337-150 337-335s-151-336-337-336c-185 0-336 151-336 336s151 335 336 335z"/><path class="fil2 str0" d="M51254 51649c0-107-34-211-97-297 668-93 1341-139 2015-139 431 0 842 183 1129 503 165 184 257 424 257 672 0 247-92 486-257 671-287 320-698 503-1129 503-674 0-1347-47-2015-139 63-86 97-190 97-297v-1477z"/><path class="fil2 str1" d="M50069 58201v-3636c403-130 823-196 1246-196 1115 0 2018 902 2018 2014s-903 2014-2018 2014c-423 0-843-66-1246-196z"/><path class="fil2 str1" d="M51469 56603c97 0 175-78 175-174 0-97-78-175-175-175-96 0-174 78-174 175 0 96 78 174 174 174zM50231 56429h673M50554 56751v-672"/><path class="fil2 str1" d="M51416 55032c-124 20-227 107-266 226-126 376-190 770-190 1166 0 397 64 791 190 1167 39 118 142 205 266 225 74 12 148 18 223 18 781 0 1414-632 1414-1410s-633-1410-1414-1410c-75 0-149 7-223 18zM51416 59167c-447 23-797 390-797 836v2248c0 445 350 813 797 835 2213 111 4429 166 6645 166 890 0 1780-42 2665-126 431-41 759-402 759-832v-2334c0-431-328-792-759-833-885-84-1775-126-2665-126-2216 0-4432 55-6645 166z"/><path class="fil2 str1" d="M52331 61275c96 0 174-78 174-174s-78-174-174-174c-97 0-175 78-175 174s78 174 175 174z"/><path class="fil2 str1" d="M61914 63786v-5370H50069v5370zM50231 61101h673M50554 61423v-671"/><path class="fil3 str2" d="M79035 62981l-7672-1v-1678h7672zM64606 61316h-2557v2618H47755l-1 1678h15977v-2618h875z"/><path class="fil2 str3" d="M64714 62980v6512c2883 0 5424-1887 6253-4641 182-607 275-1237 275-1870"/><path class="fil2 str0" d="M58522 42197h4038v4028h-4038z"/><path class="fil2 str0" d="M60279 43379c0-315-257-571-572-571-316 0-572 256-572 571s256 570 572 570c315 0 572-255 572-570zM61948 43379c0-315-257-571-572-571-316 0-572 256-572 571s256 570 572 570c315 0 572-255 572-570zM61948 45044c0-316-257-571-572-571-316 0-572 255-572 571 0 315 256 570 572 570 315 0 572-255 572-570zM60279 45044c0-316-257-571-572-571-316 0-572 255-572 571 0 315 256 570 572 570 315 0 572-255 572-570z"/><path class="fil2 str4" d="M53838 42197h4711"/><path class="fil3" d="M78066 61316V20166h969v41150z"/><path id="1" class="fil2 str5" d="M78066 61316V20166h969v41150z"/><path class="fil2 str6" d="M56369 49877h-5384v-2685h5384z"/><path class="fil2 str6" d="M51900 49555h-538l-68-67v-1880l68-67h538l68 67v1880zM55400 47568h538l67 67v1879l-67 68h-538l-68-68v-1879zM52385 47568h2557l67 67v1879l-67 68h-2557l-68-68v-1879z"/><path class="fil3 str2" d="M62022 61316v-3223h538v3223z"/><path class="fil2 str3" d="M62022 57932h-4509c0-437 64-873 190-1292 572-1902 2327-3205 4319-3205"/><path class="fil3 str4" d="M62022 53314v-6445l-13054 18-2-26708 673-27v26180l12921 1v6981z"/><path class="fil3 str3" d="M48968 46887l1 17047h940l-1-14057h1043v-3007z"/><path class="fil2 str6" d="M61914 49877h-5384v-2685h5384z"/><path class="fil2 str6" d="M57445 49555h-538l-67-67v-1880l67-67h538l68 67v1880zM57930 47568h2557l68 67v1879l-68 68h-2557l-67-68v-1879z"/><path class="fil3 str4" d="M47755 18971h9186v1208h-7975l3 43755h-1214z"/><path class="fil4 str7" d="M80246 62980l-1211 1V20179H67964v-1208h11069V9155h1213z"/><path class="fil2 str4" d="M67964 17493v-202l-6036 2v3088h6056v-202"/><path class="fil2 str8" d="M67998 18407h-6057M61914 18837h6057M61914 18407c0 470-69 938-204 1388-615 2045-2502 3445-4641 3445v-4833"/><path class="fil0 str9" d="M53104 53324c616 0 1115-419 1115-937 0-517-499-936-1115-936-615 0-1114 419-1114 936 0 518 499 937 1114 937z"/><path class="fil5 str10" d="M47755 17448v1523h9186v-1504zM79033 17467v1504H67964v-1504h11069z"/><path class="fil2 str11" d="M60945 47568h538l68 67v1879l-68 68h-538l-67-68v-1879z"/><path class="fil6" d="M56661 51908h178c59 0 111-10 155-29 44-20 80-47 109-82 28-34 50-76 64-122 15-48 22-99 22-155 0-130-25-228-77-296-51-68-128-102-231-102-48 0-92 9-131 27s-72 44-99 78c-26 33-48 74-62 122-16 49-23 102-23 161h-273c0-87 13-168 40-243 28-76 67-143 119-199 51-56 113-101 185-133 73-33 154-49 244-49 87 0 166 14 237 41 72 27 133 68 183 121 52 54 92 120 120 200 27 80 42 172 42 278 0 42-6 87-17 134-11 46-28 92-52 137-24 44-54 85-91 124s-81 72-134 97c64 24 117 56 158 95 42 38 74 82 98 129 24 48 41 98 50 151s14 105 14 155c0 106-16 200-46 282-32 83-75 152-129 208s-119 98-192 128c-75 30-155 45-242 45-85 0-164-14-237-42-73-27-137-68-191-121-53-53-96-119-126-198-31-78-46-167-46-267h275c0 58 7 112 22 160 14 49 36 90 64 125 28 34 61 61 101 80s86 28 138 28c102 0 184-35 244-104 61-70 92-175 92-318 0-140-34-244-102-311-67-67-158-100-275-100h-178v-235z"/><path id="1" class="fil6" d="M57923 53029c0-50 14-92 44-125 29-33 74-49 133-49s104 16 134 49c31 33 46 75 46 125 0 47-15 87-46 119-30 32-75 48-134 48s-104-16-133-48c-30-32-44-72-44-119z"/><path id="2" class="fil6" d="M59882 51507c0 113-25 214-75 302-51 88-118 157-203 207 49 25 93 55 133 92 39 38 73 80 101 127 29 47 50 99 65 155s22 115 22 179c0 103-15 195-46 274-31 81-73 147-128 202-53 54-117 96-191 123-74 28-154 43-239 43-86 0-166-15-239-43-74-27-137-69-191-123-54-55-97-121-128-202-31-79-46-171-46-274 0-64 7-123 21-179 15-56 36-108 64-155 27-48 60-91 99-128 38-37 82-68 131-93-85-50-152-118-200-206-49-88-73-188-73-301 0-98 13-186 41-263 29-77 67-142 117-195s109-93 178-121 144-42 226-42 157 14 226 42 128 68 178 121 89 118 116 195 41 165 41 263zm-231 1055c0-63-8-121-24-174s-38-98-66-136c-30-38-65-67-106-87-40-21-86-32-137-32-52 0-98 11-138 32-41 20-75 49-103 87s-50 83-64 136c-15 53-23 111-23 174 0 131 29 232 86 305 58 73 139 109 245 109s187-36 244-109 86-174 86-305zm-42-1050c0-56-7-108-21-156-13-47-33-88-58-123s-55-62-91-81c-35-20-74-30-118-30s-83 9-118 27c-36 18-65 44-90 78-25 33-45 74-58 122-14 49-21 103-21 163 0 58 6 111 20 158 13 48 33 89 58 122 25 34 55 60 91 78 35 18 74 27 118 27s83-9 119-27 66-44 91-78c25-33 44-74 57-122 14-47 21-100 21-158z"/><path class="fil6" d="M62174 29851h-277v-1916l-475 213v-261l709-309h43z"/><path id="1" class="fil6" d="M64090 28179c0 113-25 214-75 302s-118 157-203 207c49 25 93 55 133 92 40 38 74 80 102 127s49 99 64 155 23 115 23 179c0 103-16 195-47 274-31 81-73 147-127 202-54 54-118 96-192 123-74 28-154 43-239 43-86 0-165-15-239-43-73-27-137-69-191-123-54-55-97-121-127-202-32-79-47-171-47-274 0-64 7-123 22-179 14-56 35-108 63-155 27-48 60-91 99-128s83-68 132-93c-86-50-153-118-201-206-49-88-73-188-73-301 0-98 14-186 42-263s67-142 116-195c50-53 109-93 178-121s144-42 226-42 158 14 227 42c68 28 127 68 177 121s89 118 116 195 41 165 41 263zm-231 1055c0-63-8-121-23-174-16-53-39-98-67-136-29-38-64-67-105-87-41-21-87-32-138-32-52 0-98 11-138 32-40 20-75 49-102 87-29 38-50 83-65 136s-23 111-23 174c0 131 29 232 87 305 57 73 138 109 244 109s187-36 244-109 86-174 86-305zm-42-1050c0-56-7-108-21-156-13-47-33-88-57-123-26-35-56-62-92-81-35-20-74-30-118-30s-83 9-118 27-65 44-90 78c-25 33-44 74-58 122-14 49-21 103-21 163 0 58 6 111 20 158 14 48 33 89 58 122 25 34 56 60 91 78s74 27 118 27 83-9 119-27 66-44 91-78c25-33 44-74 57-122 14-47 21-100 21-158z"/><path id="2" class="fil6" d="M64539 29701c0-50 15-92 44-125 30-33 75-49 134-49s104 16 134 49c31 33 46 75 46 125 0 47-15 87-46 119-30 32-75 48-134 48s-104-16-134-48c-29-32-44-72-44-119z"/><path id="3" class="fil6" d="M66499 28179c0 113-25 214-75 302-51 88-118 157-203 207 49 25 93 55 133 92 39 38 73 80 101 127 29 47 50 99 65 155s22 115 22 179c0 103-15 195-46 274-31 81-74 147-128 202-53 54-117 96-192 123-73 28-153 43-238 43-86 0-166-15-240-43-73-27-136-69-190-123-55-55-97-121-128-202-31-79-46-171-46-274 0-64 7-123 21-179 15-56 36-108 63-155 27-48 61-91 100-128 38-37 82-68 131-93-85-50-152-118-200-206-49-88-74-188-74-301 0-98 14-186 42-263s67-142 117-195 109-93 178-121 144-42 226-42 157 14 226 42 128 68 178 121 88 118 115 195c28 77 42 165 42 263zm-231 1055c0-63-8-121-24-174s-38-98-67-136-64-67-105-87c-40-21-87-32-137-32-52 0-98 11-138 32-41 20-75 49-103 87s-50 83-64 136c-15 53-23 111-23 174 0 131 29 232 86 305s139 109 245 109 187-36 244-109 86-174 86-305zm-42-1050c0-56-7-108-21-156-13-47-33-88-58-123s-56-62-91-81c-35-20-74-30-118-30s-83 9-118 27c-36 18-65 44-90 78-25 33-45 74-59 122-13 49-20 103-20 163 0 58 6 111 20 158 13 48 33 89 58 122 25 34 55 60 91 78 35 18 74 27 118 27s83-9 119-27 66-44 91-78c25-33 44-74 57-122 14-47 21-100 21-158z"/><path id="4" class="fil7" d="M61173 30141h5551v144h-5551z"/><path id="5" class="fil7" d="M66724 30141v144z"/><path class="fil6" d="M62621 32959h-1265v-207l622-823c57-76 103-143 140-201s66-111 87-160c22-47 36-93 44-135s12-84 12-128c0-56-7-108-21-158-13-49-33-92-59-128-25-36-57-65-95-86s-82-32-130-32c-63 0-118 12-162 35-45 22-83 54-112 94-30 40-52 89-65 145-15 57-22 119-22 188h-275c0-96 14-186 41-271 26-85 67-159 119-222 53-63 119-113 199-150 79-37 171-55 277-55 91 0 173 14 245 44 72 28 133 70 182 123 50 53 88 117 115 192 26 74 39 157 39 247 0 66-9 133-27 200-18 68-43 135-75 202-33 67-70 133-112 199-43 66-88 130-136 193l-503 659h937v235z"/><path id="1" class="fil6" d="M64192 32959h-1265v-207l622-823c57-76 103-143 140-201s66-111 87-160c22-47 36-93 44-135s12-84 12-128c0-56-7-108-21-158-13-49-33-92-59-128-25-36-57-65-95-86s-82-32-130-32c-63 0-118 12-162 35-45 22-83 54-112 94-30 40-51 89-65 145-15 57-21 119-21 188h-276c0-96 14-186 41-271s67-159 119-222c53-63 119-113 199-150 79-37 171-55 277-55 91 0 173 14 245 44 72 28 133 70 182 123 50 53 88 117 115 192 26 74 39 157 39 247 0 66-9 133-27 200-18 68-43 135-75 202-33 67-70 133-112 199-43 66-88 130-136 193l-503 659h937v235z"/><path id="2" class="fil6" d="M64540 32808c0-50 15-91 44-125 30-33 75-49 133-49 59 0 104 16 135 49 30 34 46 75 46 125 0 48-16 87-46 119-31 33-76 48-135 48-58 0-103-15-133-48-29-32-44-71-44-119z"/><path id="3" class="fil6" d="M66292 30694v244h-22c-117 0-215 20-293 61s-141 94-190 161c-48 68-84 145-106 232-23 87-37 178-44 272 52-65 110-113 176-143 65-31 135-47 210-47 96 0 179 22 247 65s124 99 168 169 76 150 97 239 32 180 32 273c0 108-13 209-38 303-25 93-62 175-113 243-49 69-112 124-187 164-74 40-161 60-261 60-105 0-197-26-273-77-77-50-141-117-190-199-51-83-88-176-112-279-24-104-35-208-35-312v-136c0-105 4-211 13-316 8-105 25-206 49-302 25-95 59-184 102-267 43-82 98-154 165-214 67-61 149-108 245-142s208-52 338-52h22zm-316 1020c-39 0-77 8-112 23-35 16-68 37-98 65-30 27-56 59-79 96s-41 76-55 119v113c0 102 10 191 30 268 19 77 44 142 75 195 32 52 68 91 109 118 40 27 81 41 122 41 53 0 100-13 141-38s75-61 103-108c28-46 49-100 64-164 15-63 22-132 22-207 0-68-7-133-20-196-13-62-32-118-60-166-26-48-60-87-101-116-40-28-87-43-141-43z"/><path id="4" class="fil7" d="M61174 33248h5549v144h-5549z"/><path id="5" class="fil7" d="M66723 33248v144z"/><path class="fil6" d="M62621 36066h-1265v-207l622-823c57-76 103-143 140-201s66-111 87-159c22-48 36-93 44-136 8-42 12-84 12-127 0-57-7-109-21-159-13-48-33-91-59-127-25-37-57-66-95-87s-82-32-130-32c-63 0-118 12-162 35-45 23-83 54-112 94-30 41-52 89-65 146-15 56-22 118-22 187h-275c0-96 14-185 41-271 26-85 67-158 119-222 53-63 119-113 199-150 79-37 171-55 277-55 91 0 173 15 245 44 72 28 133 70 182 123 50 53 88 118 115 192 26 75 39 157 39 247 0 66-9 133-27 201-18 67-43 134-75 201-33 67-70 133-112 199-43 66-88 130-136 193l-503 659h937v235z"/><path id="1" class="fil6" d="M63969 35306h251v235h-251v525h-276v-525h-854v-170l840-1568h290v1503zm-826 0h550v-1075l-14 28-536 1047z"/><path id="2" class="fil6" d="M64540 35915c0-50 15-91 44-124 30-33 75-50 133-50 59 0 104 17 135 50 30 33 46 74 46 124 0 48-16 88-46 120-31 32-76 48-135 48-58 0-103-16-133-48-29-32-44-72-44-120z"/><path id="3" class="fil6" d="M66292 33802v243h-22c-117 0-215 21-293 62-78 40-141 93-190 161-48 67-84 145-106 232-23 87-37 177-44 272 52-66 110-114 176-144 65-31 135-46 210-46 96 0 179 21 247 64s124 100 168 170 76 149 97 238 32 181 32 273c0 108-13 209-38 303s-62 175-113 244c-49 69-112 123-187 163-74 40-161 60-261 60-105 0-197-25-273-76-77-51-141-117-190-200-51-82-88-175-112-279s-35-208-35-312v-135c0-106 4-211 13-316 8-106 25-206 49-302 25-96 59-185 102-268 43-82 98-153 165-214 67-60 149-108 245-142s208-51 338-51h22zm-316 1019c-39 0-77 8-112 23-35 16-68 37-98 65s-56 59-79 96-41 76-55 119v113c0 102 10 191 30 269 19 77 44 141 75 194 32 52 68 92 109 119 40 27 81 40 122 40 53 0 100-13 141-38s75-61 103-107c28-47 49-101 64-164s22-133 22-208c0-68-7-133-20-195-13-63-32-119-60-166-26-49-60-87-101-117-40-28-87-43-141-43z"/><path class="fil0 str10" d="M60684 27137h6531v9382h-6531z"/><path class="fil6" d="M72219 11746h179c59 0 110-9 154-29s81-47 109-82c29-34 50-75 65-122 14-47 21-99 21-155 0-129-25-228-77-296-51-68-128-102-230-102-49 0-92 9-132 27-38 19-71 44-98 78s-48 74-63 123c-15 48-23 102-23 160h-273c0-87 13-168 41-243 27-76 67-142 118-198 52-57 113-101 186-134 72-32 154-49 244-49 87 0 166 14 237 41 71 28 132 68 183 121 51 54 91 120 119 200s42 173 42 278c0 43-6 87-16 134-11 47-28 92-52 137-24 44-54 86-92 125-36 39-81 71-134 97 64 24 118 55 159 94s74 82 97 129c24 48 41 99 50 152 10 52 14 104 14 154 0 107-15 200-46 283-31 82-74 151-128 207-55 56-119 99-193 128-74 30-155 45-242 45-85 0-164-14-237-41-73-28-136-68-190-122-54-53-96-119-127-197-30-78-46-168-46-268h276c0 59 7 112 21 161 15 48 36 89 64 124s62 61 102 80 85 28 137 28c103 0 184-34 245-104 61-69 91-175 91-317 0-141-34-245-101-312-68-66-159-100-275-100h-179v-235z"/><path id="1" class="fil6" d="M73481 12867c0-50 15-91 44-125 30-32 74-49 133-49s104 17 134 49c31 34 47 75 47 125 0 48-16 88-47 119-30 33-75 49-134 49s-103-16-133-49c-29-31-44-71-44-119z"/><path id="2" class="fil6" d="M74546 12777c128 0 232-20 313-60s145-93 192-161c46-67 79-145 97-232 19-87 30-178 33-273-50 63-107 114-172 152-65 39-136 58-214 58-96 0-178-22-246-66s-123-102-167-172c-43-71-75-152-95-242s-30-182-30-274c0-108 12-209 37-304 25-96 62-179 110-250 50-71 111-126 186-167 74-42 160-62 260-62 111 0 205 26 282 79 77 52 140 121 188 207s83 184 105 293 32 222 32 336v105c0 98-3 197-10 299-6 101-20 199-42 293-22 95-53 184-94 267-40 83-94 155-161 216-68 62-150 111-250 147-98 35-217 53-354 53h-21v-242h21zm296-754c36 0 70-8 104-23 33-16 65-37 95-64s57-59 82-95c24-37 44-77 61-119v-122c0-102-9-193-28-272-20-79-45-146-77-200s-67-95-107-123-81-42-122-42c-52 0-98 14-138 41-41 27-75 64-102 111-28 47-48 102-63 167-15 64-22 134-22 210 0 67 6 133 19 196 12 64 31 121 57 170 26 50 59 90 99 120s87 45 142 45z"/><path id="3" class="fil7" d="M71686 13307h3980v145h-3980z"/><path class="fil3 str12" d="M78065 17467V9155h968v8312z"/><path class="fil2 str13" d="M79719 8008H52668M51388 9638l1 7817M79738 9155H52515v8303"/><path class="fil2 str14" d="M51570 17484V9638M52961 8250h26758"/><path class="fil2 str15" d="M52477 17182h-1134M52477 9638h-1134M52961 9155V8023"/><path class="fil2 str16" d="M52961 8431h-1210v1207"/><path class="fil2 str15" d="M77581 9155V8023M79517 9155V8023M61128 9155V8023M69355 9155V8023"/><path class="fil6" d="M73154 16075h-1265v-207l621-823c57-76 104-143 141-201 36-58 66-111 87-159s35-93 43-136c8-42 12-84 12-127 0-57-7-109-20-159-14-48-34-91-60-127-25-37-57-66-95-87s-81-32-129-32c-64 0-118 12-163 35s-83 54-112 94c-29 41-51 89-65 146-14 56-21 118-21 187h-275c0-96 13-185 40-271 27-85 67-158 120-222 53-63 119-113 198-150s172-55 278-55c91 0 172 15 244 44 72 28 133 70 183 123 49 53 88 118 114 192 26 75 39 157 39 247 0 66-9 133-27 201-18 67-43 134-75 201s-69 133-112 199c-42 66-87 130-135 193l-504 659h938v235z"/><path id="1" class="fil6" d="M73502 15924c0-50 14-91 44-124 29-33 74-50 133-50s104 17 134 50c31 33 46 74 46 124 0 48-15 88-46 120-30 32-75 48-134 48s-104-16-133-48c-30-32-44-72-44-120z"/><path id="2" class="fil6" d="M75506 15110c0 185-14 342-42 468-29 127-69 230-122 308-52 78-115 134-190 169-74 34-158 51-251 51-90 0-173-17-248-51-75-35-139-91-192-169s-94-181-123-308c-30-126-44-283-44-468v-345c0-185 14-341 44-467 29-125 70-225 122-302 53-77 117-132 191-165s157-50 248-50c92 0 175 17 250 50 74 33 138 88 191 165s93 177 123 302c29 126 43 282 43 467v345zm-275-394c0-127-7-235-21-324-15-89-36-161-65-217-27-55-62-96-104-121-41-24-89-37-142-37s-100 13-141 37c-41 25-76 66-103 121-28 56-50 128-65 217s-22 197-22 324v439c0 126 7 235 22 325 15 91 37 165 65 224 29 57 64 100 105 127 42 27 89 40 141 40 55 0 102-13 144-40 41-27 76-70 103-127 28-59 48-133 62-224 14-90 21-199 21-325v-439z"/><path class="fil6" d="M68394 52640h-277v-1915l-475 212v-261l709-309h43z"/><path id="1" class="fil6" d="M70310 50969c0 113-25 213-75 301-51 88-118 157-203 207 49 25 93 55 133 93 40 37 74 79 102 126 28 48 49 99 64 155s23 115 23 179c0 103-16 195-47 275s-73 147-127 201-118 96-192 123c-74 28-154 43-239 43-86 0-166-15-239-43-73-27-137-69-191-123s-97-121-127-201c-32-80-47-172-47-275 0-64 7-123 22-179 14-56 35-107 63-155 27-48 60-90 99-128 39-37 83-68 131-93-85-50-152-118-200-206-49-88-73-187-73-300 0-99 14-187 42-264s66-142 116-195 109-93 178-121 144-42 226-42 158 14 226 42c69 28 128 68 178 121s89 118 116 195 41 165 41 264zm-231 1055c0-64-8-122-23-174-16-53-39-99-67-137-29-37-64-67-105-87-41-21-87-32-138-32-52 0-98 11-138 32-40 20-75 50-102 87-29 38-50 84-65 137-15 52-23 110-23 174 0 130 29 231 86 304 58 73 139 109 245 109s187-36 244-109 86-174 86-304zm-42-1051c0-56-7-108-21-156-13-47-33-88-57-123-26-35-56-62-92-81-35-20-74-30-118-30s-83 9-118 27c-35 19-65 44-90 78-25 33-44 74-58 123-14 48-21 102-21 162 0 58 6 111 20 158 13 48 33 89 58 122 25 34 56 60 91 78s74 27 118 27 83-9 119-27 66-44 91-78c25-33 44-74 57-122 14-47 21-100 21-158z"/><path id="2" class="fil6" d="M70759 52490c0-50 15-91 44-125 30-33 75-49 134-49 58 0 104 16 134 49 31 34 46 75 46 125 0 47-15 87-46 119-30 33-76 48-134 48-59 0-104-15-134-48-29-32-44-72-44-119z"/><path id="3" class="fil6" d="M72719 50969c0 113-25 213-75 301-51 88-118 157-203 207 49 25 93 55 132 93 40 37 74 79 102 126 28 48 50 99 65 155s22 115 22 179c0 103-15 195-46 275s-74 147-128 201c-53 54-117 96-192 123-73 28-153 43-238 43-86 0-166-15-240-43-73-27-136-69-191-123-54-54-96-121-127-201s-47-172-47-275c0-64 8-123 22-179 15-56 36-107 63-155s61-90 100-128c38-37 82-68 131-93-85-50-152-118-200-206-49-88-74-187-74-300 0-99 14-187 42-264s67-142 117-195 109-93 178-121 144-42 226-42 157 14 226 42 128 68 178 121 88 118 115 195c28 77 42 165 42 264zm-231 1055c0-64-8-122-24-174-16-53-38-99-67-137-29-37-64-67-105-87-40-21-87-32-137-32-52 0-98 11-138 32-41 20-75 50-103 87-28 38-50 84-65 137-14 52-22 110-22 174 0 130 29 231 86 304s139 109 245 109 187-36 244-109 86-174 86-304zm-42-1051c0-56-7-108-21-156-13-47-33-88-58-123s-56-62-91-81c-35-20-74-30-118-30s-83 9-118 27c-36 19-65 44-90 78-25 33-45 74-59 123-13 48-20 102-20 162 0 58 6 111 20 158 13 48 33 89 58 122 25 34 55 60 91 78 35 18 74 27 118 27s83-9 119-27 66-44 91-78c25-33 44-74 57-122 14-47 21-100 21-158z"/></g></g></svg>