<svg xmlns="http://www.w3.org/2000/svg" width="1280" height="775" viewBox="0 0 128000 77500" shape-rendering="geometricPrecision" text-rendering="geometricPrecision" image-rendering="optimizeQuality" fill-rule="evenodd" clip-rule="evenodd"><defs><style>.str1{stroke:#2b2a29;stroke-width:100.235}.str33,.str34{stroke:#000;stroke-width:100.235}.str34{stroke-dasharray:200.469223 100.234612}.str11{stroke:#1f1b20}.str11,.str32{stroke-width:98.4304}.str32{stroke:#000}.str3,.str21{stroke:#000;stroke-width:100.235}.str8,.str7{stroke:#4d3026;stroke-width:100.235}.str30{stroke:#80dfff;stroke-width:100.235}.str29,.str31{stroke:#000;stroke-width:100.235}.str38{stroke:#80dfff;stroke-width:100.235}.str36,.str13,.str37,.str14{stroke:#000;stroke-width:100.235}.str15{stroke:#80dfff;stroke-width:100.235}.str16,.str17,.str18{stroke:#000;stroke-width:100.235}.str28{stroke:#4d3026;stroke-width:100.235}.str19,.str0,.str23,.str5,.str35,.str10,.str20,.str6,.str9,.str25,.str2{stroke:#000;stroke-width:100.235}.str22{stroke:#1f1b20;stroke-width:100.235}.str4,.str12{stroke:#000;stroke-width:100.235}.str24,.str26,.str27{stroke:#4d3026;stroke-width:100.235}.fil0,.fil5{fill:none}.fil5{fill-rule:nonzero}.fil4{fill:#2b2a29}.fil2{fill:#e2cca5}.fil3{fill:#2b2a29}.fil3,.fil6{fill-rule:nonzero}.fil6{fill:#1f1b20}.fil7{fill:#000}.fil7,.fil1{fill-rule:nonzero}.fil1{fill:#5d5d52}</style></defs><g id="L3"><path id="Bounds" class="fil0" d="M128000 0v77500H0V0z"/></g><g id="L1"><g id="_1115098560"><path class="fil1 str0" d="M46946 46243h8976v-2432h542v3283h-542v-309h-8976v-542z"/><path id="Contour" class="fil2" d="M45726 35469h4758l-5-11507h14145V3006l18017-20-42 62987H66459v8512l-20733-11z"/><path class="fil0 str1" d="M69974 47067h6531v9382h-6531z"/><path class="fil3" d="M70997 48510h179c59 0 110-10 154-29 44-20 81-48 109-82 29-34 50-76 65-123 14-47 22-98 22-154 0-130-26-228-77-296-52-68-129-102-231-102-49 0-92 9-132 27-38 18-71 44-98 78-27 33-48 74-63 122-15 49-23 102-23 161h-273c0-87 13-168 41-243 27-76 67-143 118-199 52-56 113-101 186-133 72-33 154-49 244-49 87 0 166 13 237 41 71 27 132 68 183 121 51 54 91 120 119 199 28 81 42 173 42 279 0 42-6 87-16 134-11 46-28 92-52 136-24 45-54 86-92 125-36 39-81 72-134 97 65 24 118 56 159 95 41 38 74 82 97 129 24 48 41 98 50 151 10 53 14 105 14 155 0 106-15 200-46 282-31 83-74 152-128 208-55 56-119 98-193 128s-155 44-242 44c-85 0-164-13-237-41-73-27-136-68-190-121s-96-119-127-198c-30-78-46-167-46-267h276c0 58 7 112 21 160 15 49 36 90 64 125 28 34 62 61 102 79 40 20 85 29 137 29 103 0 184-35 245-104 61-70 91-175 91-318 0-140-34-244-101-311-68-67-159-100-275-100h-179v-235z"/><path id="1" class="fil3" d="M72568 48510h179c59 0 110-10 154-29 44-20 81-48 109-82 29-34 51-76 65-123s22-98 22-154c0-130-26-228-77-296-52-68-129-102-231-102-49 0-92 9-132 27-38 18-71 44-98 78-27 33-48 74-63 122-15 49-23 102-23 161h-273c0-87 13-168 41-243 28-76 67-143 118-199 52-56 113-101 186-133 73-33 154-49 244-49 87 0 166 13 237 41 71 27 132 68 183 121 51 54 91 120 119 199 28 81 42 173 42 279 0 42-6 87-16 134-11 46-28 92-52 136-24 45-54 86-91 125s-82 72-135 97c65 24 118 56 159 95 41 38 74 82 98 129 24 48 40 98 49 151 10 53 14 105 14 155 0 106-15 200-46 282-31 83-74 152-128 208-55 56-119 98-193 128s-155 44-242 44c-85 0-164-13-237-41-73-27-136-68-190-121s-96-119-126-198c-31-78-47-167-47-267h276c0 58 7 112 21 160 15 49 36 90 64 125 28 34 62 61 102 79 40 20 85 29 137 29 103 0 184-35 245-104 61-70 91-175 91-318 0-140-34-244-101-311-68-67-159-100-275-100h-179v-235z"/><path id="2" class="fil3" d="M73830 49631c0-50 15-92 44-125 30-33 74-49 133-49s104 16 134 49c31 33 47 75 47 125 0 47-16 87-47 119-30 32-75 48-134 48s-103-16-133-48c-29-32-44-72-44-119z"/><path id="3" class="fil3" d="M75667 49021h251v235h-251v525h-275v-525h-855v-170l841-1567h289v1502zm-825 0h550v-1075l-14 28-536 1047z"/><path id="4" class="fil4" d="M70464 50070h5551v145h-5551z"/><path id="5" class="fil4" d="M76015 50070v145z"/><path class="fil3" d="M70758 51754l98-1128h983v266h-752l-53 616c35-23 77-46 127-66 50-21 109-31 175-31 88 0 167 18 238 53 70 36 129 87 177 153 49 65 86 145 112 238 26 94 38 198 38 313 0 108-12 209-38 300-25 92-63 171-115 238-51 67-115 119-191 157-77 38-167 57-269 57-78 0-151-13-220-38-69-26-130-65-183-116-54-52-98-117-132-196s-56-171-63-277h257c16 130 53 227 112 293 58 66 134 99 229 99 52 0 100-12 142-36 43-24 79-58 108-103 29-44 51-98 66-162 16-64 24-135 24-214 0-70-8-136-24-197s-39-114-69-159-68-81-113-107c-45-25-96-38-153-38-39 0-73 3-100 10-28 6-52 16-73 28-21 13-41 28-60 46s-38 39-59 60l-219-59z"/><path id="1" class="fil3" d="M72486 52648c128 0 233-21 313-60 82-40 145-94 192-161s79-145 98-232c18-87 29-178 32-273-49 63-107 114-171 152-65 38-136 58-214 58-96 0-178-22-246-66s-124-102-167-173c-44-71-76-151-96-241-20-91-30-182-30-274 0-108 12-209 37-305 25-95 62-178 111-249s111-127 185-167c74-42 161-62 260-62 111 0 205 26 283 79 77 52 139 121 187 207 49 86 84 183 106 293 21 109 32 221 32 336v104c0 99-3 198-10 300-7 100-21 198-43 293-21 95-53 183-93 267-40 82-94 155-162 216-67 62-150 110-249 146s-218 54-355 54h-20v-242h20zm297-754c35 0 70-8 103-23 33-16 66-37 95-64 31-27 58-59 82-95 25-38 45-77 62-119v-122c0-102-10-193-29-272-20-79-45-146-76-200-32-54-68-95-108-123-39-28-80-42-122-42-51 0-98 14-138 41s-74 64-102 111c-27 47-48 102-62 167-15 64-22 134-22 210 0 67 6 133 18 196 13 64 32 121 58 170 26 50 59 90 98 120 40 30 88 45 143 45z"/><path id="2" class="fil3" d="M73830 52738c0-50 15-91 44-125 30-33 74-49 133-49s104 16 134 49c31 34 47 75 47 125 0 48-16 87-47 119-30 33-75 48-134 48s-103-15-133-48c-29-32-44-71-44-119z"/><path id="3" class="fil3" d="M75873 50788l-778 2100h-287l776-2026h-1008v-236h1297z"/><path id="4" class="fil4" d="M70464 53178h5551v144h-5551z"/><path id="5" class="fil4" d="M76015 53178v144z"/><path class="fil3" d="M70758 54861l98-1128h983v266h-752l-53 617c35-24 77-46 127-67s109-31 175-31c88 0 167 18 238 54 70 35 129 86 177 152 49 66 86 145 112 239 26 93 38 197 38 312 0 109-12 209-38 300-25 92-63 171-115 238-51 67-115 119-191 157-77 38-167 57-269 57-78 0-151-13-220-38-69-26-130-64-183-116-54-52-98-117-132-196-34-78-56-171-63-276h257c16 129 53 227 112 292 58 66 134 99 229 99 52 0 100-12 142-35 43-24 79-59 108-103 29-45 51-99 66-163 16-63 24-134 24-213 0-70-8-136-24-198-16-61-39-114-69-159s-68-80-113-106-96-39-153-39c-39 0-73 4-100 10-28 7-52 16-73 29-21 12-41 28-60 46s-38 38-59 60l-219-60z"/><path id="1" class="fil3" d="M72486 55755c128 0 233-20 313-60 82-40 145-93 192-161 47-67 79-144 98-231 18-87 29-179 32-274-49 63-107 114-171 153-65 38-136 57-214 57-96 0-178-22-246-66s-124-102-167-172c-44-71-76-152-96-242s-30-182-30-274c0-108 12-209 37-304 25-96 62-179 111-250s111-126 185-167c74-42 161-62 260-62 111 0 205 26 283 79 77 52 139 121 187 207 49 86 84 184 106 293 21 109 32 222 32 336v105c0 98-3 198-10 299s-21 199-43 293c-21 95-53 184-93 267s-94 155-162 216c-67 62-150 111-249 147-99 35-218 53-355 53h-20v-242h20zm297-754c35 0 70-8 103-23s66-37 95-64c31-27 58-59 82-95 25-37 45-77 62-119v-121c0-103-10-194-29-273-20-79-45-146-76-200-32-54-68-94-108-123-39-28-80-42-122-42-51 0-98 14-138 41s-74 64-102 111c-27 47-48 103-62 167-15 64-22 134-22 210 0 67 6 133 18 197 13 63 32 120 58 169 26 50 59 90 98 120 40 30 88 45 143 45z"/><path id="2" class="fil3" d="M73830 55845c0-50 15-91 44-124 30-33 74-50 133-50s104 17 134 50c31 33 47 74 47 124 0 48-16 88-47 119-30 33-75 49-134 49s-103-16-133-49c-29-31-44-71-44-119z"/><path id="3" class="fil3" d="M75873 53895l-778 2101h-287l776-2026h-1008v-237h1297z"/><path class="fil1 str2" d="M45726 73444V35469h4758v-690h1479v2019h-5017v35318h3820v1328z"/><path class="fil1 str3" d="M82599 65156h-4256l-10-1328h3182V5305h-3367V4242l4493 8z"/><path class="fil1 str4" d="M50916 74474h-5190v-1030h5190z"/><path class="fil1 str5" d="M46569 23962h18055v1328l-12822-10v4154l-1328-1 5-4153-3910 10z"/><path class="fil1 str6" d="M64461 45287v5897h-3695v542h3695v12123h543V45287z"/><path class="fil5 str7" d="M56716 51630v3952c384 0 767-56 1135-167 1672-501 2816-2040 2816-3785"/><path class="fil5 str8" d="M65141 40767h4428c0 431-63 859-187 1272-561 1873-2285 3155-4241 3155"/><path class="fil1 str9" d="M65556 73454h-6269v-1338h5192l-18-8267h4604v1308h-3530z"/><path class="fil1 str10" d="M46946 51159h8976v-261h542v286h136v517h-9654v-542z"/><path class="fil5 str11" d="M50197 59768v3251h-3251v-3251z"/><path class="fil5 str11" d="M47900 61605c-255 0-461 206-461 461 0 254 206 460 461 460 254 0 460-206 460-460 0-255-206-461-460-461zM47900 60261c-255 0-461 206-461 461 0 254 206 460 461 460 254 0 460-206 460-460 0-255-206-461-460-461zM49243 60261c-254 0-460 206-460 461 0 254 206 460 460 460 255 0 461-206 461-460 0-255-206-461-461-461zM49243 61605c-254 0-460 206-460 461 0 254 206 460 460 460 255 0 461-206 461-460 0-255-206-461-461-461z"/><path class="fil1 str12" d="M64461 33514v3326h1074v-3326z"/><path class="fil3" d="M74955 61717h-277v-1915l-475 212v-261l709-309h43z"/><path id="1" class="fil3" d="M75819 60583l98-1128h984v265h-752l-53 617c34-24 76-46 126-67 51-20 109-30 175-30 88 0 167 18 238 53 71 36 129 87 178 153 48 65 85 145 111 238 26 94 39 198 39 313 0 108-13 209-38 300-26 92-64 171-116 238-50 67-115 119-191 157-77 38-167 57-269 57-78 0-151-13-220-38-69-26-130-65-183-116-54-52-98-117-132-196s-55-171-63-277h258c15 130 52 227 111 293 58 66 135 99 229 99 53 0 100-12 143-36 42-24 78-58 107-103 29-44 51-98 67-162s23-135 23-214c0-70-8-136-24-197s-39-114-69-159-68-81-113-107c-45-25-96-38-152-38-40 0-74 3-101 10-27 6-52 16-73 28-21 13-41 28-60 46-18 18-38 39-59 60l-219-59z"/><path id="2" class="fil3" d="M77320 61567c0-50 15-91 44-125 30-33 75-49 133-49 59 0 104 16 135 49 30 34 46 75 46 125 0 48-16 87-46 119-31 33-76 48-135 48-58 0-103-15-133-48-29-32-44-71-44-119z"/><path id="3" class="fil3" d="M78228 60583l97-1128h984v265h-752l-53 617c35-24 77-46 127-67 50-20 109-30 175-30 88 0 167 18 238 53 70 36 129 87 177 153 49 65 86 145 112 238 26 94 38 198 38 313 0 108-12 209-38 300-25 92-63 171-115 238-51 67-115 119-191 157-77 38-167 57-269 57-78 0-151-13-220-38-69-26-130-65-183-116-54-52-98-117-132-196s-56-171-64-277h258c16 130 53 227 112 293 58 66 134 99 229 99 52 0 100-12 142-36 43-24 79-58 108-103 29-44 51-98 66-162 16-64 24-135 24-214 0-70-8-136-24-197s-39-114-69-159-68-81-113-107c-45-25-96-38-153-38-40 0-73 3-100 10-28 6-52 16-73 28-21 13-42 28-60 46-19 18-38 39-59 60l-219-59z"/><path class="fil3" d="M71886 21385h-277v-1916l-475 213v-261l708-309h44z"/><path id="1" class="fil3" d="M73886 19284l-779 2101h-287l776-2026h-1008v-237h1298z"/><path id="2" class="fil3" d="M74251 21234c0-49 15-91 44-124 30-33 74-50 133-50s104 17 134 50c31 33 47 75 47 124 0 48-16 88-47 120-30 32-75 48-134 48s-103-16-133-48c-29-32-44-72-44-120z"/><path id="3" class="fil3" d="M75316 21144c128 0 232-20 313-60 81-39 145-93 192-160 46-68 79-145 97-232 19-87 30-178 33-273-50 63-107 114-172 152s-136 57-214 57c-96 0-178-22-246-66s-123-101-167-172c-43-71-75-152-95-242s-30-181-30-274c0-107 12-209 37-304 25-96 62-178 110-249 50-71 111-127 186-168 74-41 160-61 260-61 111 0 205 26 282 78s140 122 188 207c48 86 83 184 105 293s32 222 32 337v104c0 98-3 198-10 299-6 101-20 199-42 293-22 95-53 184-94 267-40 83-94 155-161 217-68 62-150 110-250 146-98 36-217 54-354 54h-21v-243h21zm296-753c36 0 70-8 104-24 33-15 65-36 95-63 30-28 57-59 82-96 24-37 44-76 61-119v-121c0-103-9-194-28-273-20-79-45-146-77-200-32-53-67-94-107-122s-81-42-122-42c-52 0-98 13-138 40-41 27-75 64-102 112-28 46-48 102-63 167-15 64-22 133-22 209 0 67 6 133 19 197 12 63 31 120 57 170 26 49 59 89 99 119 40 31 87 46 142 46z"/><path class="fil5 str13" d="M78091 2980v-173h-9257v196"/><path class="fil5 str14" d="M68777 5291v173h9371v-159"/><path class="fil5 str15" d="M68927 3812h9244M78171 4135h-9244"/><path class="fil1 str16" d="M82599 65973h-4360v-817h4360z"/><path class="fil1 str17" d="M77984 4251l4657-1V2986l-4657-6z"/><path class="fil1 str18" d="M64624 4273l4303-1V3009l-4303-4z"/><path class="fil1 str19" d="M65535 65157h3643v817l-2719-1v8512h-7322v-1031h6398z"/><path class="fil1 str20" d="M64624 28680h932V5305h3221V4272l-4153 1z"/><path class="fil5 str21" d="M48210 48350c0-219-177-395-396-395h-528v1949h528c219 0 396-177 396-395v-1159zM49436 48634c145 0 264 118 264 263 0 146-119 264-264 264-146 0-265-118-265-264 0-145 119-263 265-263z"/><path class="fil5 str21" d="M48210 49488c0 84-26 165-76 233 524 73 1053 109 1582 109 338 0 660-144 885-395 130-145 202-333 202-527s-72-382-202-527c-225-251-547-395-885-395-529 0-1058 37-1582 109 50 68 76 150 76 233v1160z"/><path class="fil0 str1" d="M49663 48173c483 0 874 329 874 735s-391 735-874 735c-484 0-875-329-875-735s391-735 875-735z"/><path class="fil5 str22" d="M52258 46243h2853c102-316 154-646 154-978 0-875-708-1584-1580-1584-873 0-1581 709-1581 1584 0 332 52 662 154 978z"/><path class="fil5 str22" d="M53512 45144c0-76 62-137 137-137 76 0 137 61 137 137s-61 137-137 137c-75 0-137-61-137-137zM53649 46116v-528M53396 45862h527"/><path class="fil5 str22" d="M54745 45186c-16 97-84 178-177 209-295 99-604 149-915 149-312 0-621-50-916-149-93-31-162-112-177-209-9-58-14-116-14-175 0-613 496-1110 1107-1110 610 0 1106 497 1106 1110 0 59-5 117-14 175z"/><path class="fil6" d="M48532 45602v99l-36-1-35-3-34-4-34-5-34-8-32-9-33-10-31-12-31-13-30-14-29-16-29-17-27-19-27-19-25-21-25-22-23-23-23-24-21-25-20-26-19-27-17-28-17-29-15-29-13-30-12-31-11-32-9-33-8-33-6-33-4-34-2-35 100-5 2 30 3 29 6 29 6 29 8 27 9 28 10 26 12 26 13 26 14 24 15 24 16 23 18 23 18 21 19 21 20 20 22 18 22 18 22 17 24 16 24 15 25 13 26 13 27 11 27 10 27 9 29 8 28 6 29 5 30 3 30 3h31zm1781 99h-1781v-99h1781v99zm612-667h101v2l-3 35-4 34-6 33-8 33-9 33-11 32-12 31-13 30-15 29-16 29-18 28-19 27-20 26-21 25-23 24-23 23-25 22-25 21-27 19-27 19-29 17-29 16-30 14-31 13-31 12-32 10-33 9-34 8-34 5-34 4-35 3-36 1v-99h31l30-3 30-3 29-5 29-6 28-8 27-9 28-10 26-11 26-13 25-13 24-15 24-16 23-17 22-18 21-18 20-20 19-21 19-21 17-23 16-23 15-24 14-24 13-26 12-26 10-26 9-28 8-27 6-29 5-29 4-29 3-30-1 3zm101 0v2-2zm0-1v1h-101v-1l1-2 100 2zm-101 0l1-2-1 2zm133-5159h100v162l-1 161v161l-1 162-1 161-2 161-1 162-2 161-3 162-2 161-3 161-3 161-3 162-3 161-4 162-4 161-4 161-5 161-5 162-5 161-5 161-6 162-5 161-7 161-6 161-6 162-7 161-7 161-8 161-7 161-8 162-8 161-100-5 8-161 8-161 7-161 8-161 7-161 6-161 7-162 6-161 6-161 6-161 6-161 5-161 5-161 5-161 4-161 5-162 4-161 3-161 4-161 3-161 3-162 3-161 2-161 2-161 2-161 2-162 1-161 2-161v-161l1-161 1-162v-161zm50 0h-50 50zm-150-2064l99-10 7 65 6 65 5 64 6 65 5 65 5 64 5 65 5 65 5 65 4 64 5 65 4 65 3 65 4 65 3 64 4 65 3 65 2 65 3 65 3 65 2 64 2 65 2 65 2 65 1 65 1 65 1 65 1 65 1 64v65l1 65v65h-100v-65l-1-64v-65l-1-64-1-65-1-64-1-65-2-65-1-64-2-65-2-64-3-65-2-65-3-64-2-65-3-64-4-65-3-64-4-65-3-64-4-65-5-64-4-65-5-64-5-65-4-64-6-64-5-65-5-64-6-64-6-65-6-64zm49-5l-49 5 49-5zm-660-540v-98h35l34 3 33 4 33 5 33 7 31 8 32 10 31 11 30 13 29 13 29 15 27 17 27 17 27 19 25 19 24 21 24 22 22 23 21 23 20 25 19 26 18 26 17 28 15 28 15 29 12 30 12 30 10 31 9 32 7 32 5 33 4 33-99 10-4-29-5-28-6-28-7-27-9-27-10-26-11-26-12-24-13-25-15-23-15-23-16-22-18-21-18-21-19-19-20-19-21-18-22-17-22-16-23-15-24-14-25-13-25-12-26-10-26-10-27-8-28-7-28-6-28-5-29-3-29-2-30-1zm-1849-98h1849v98h-1849v-98zm-610 643l-100-10 4-33 5-33 8-32 8-32 10-31 12-30 12-30 15-29 15-28 17-28 18-26 19-26 20-25 21-23 23-23 23-22 24-21 25-19 27-19 27-17 27-17 29-15 29-13 31-13 30-11 32-10 32-8 32-7 33-5 33-4 34-3h35v98l-30 1-29 2-29 3-28 5-28 6-27 7-27 8-27 10-26 10-25 12-24 13-24 14-24 15-22 16-22 17-21 18-20 19-19 19-18 21-18 21-16 22-15 23-15 23-13 25-12 24-11 26-10 26-9 27-7 27-6 28-5 28-3 29zm-50-5l50 5-50-5zm-51 2069h-100v-65l1-65v-65l1-64 1-65 1-65 1-65 2-65 1-65 2-65 2-65 2-64 3-65 2-65 3-65 3-65 4-65 3-64 4-65 4-65 4-65 4-65 4-64 5-65 5-65 5-65 5-64 5-65 6-65 6-64 6-65 6-65 100 10-7 64-6 65-5 64-6 64-5 65-5 64-5 64-5 65-5 64-4 65-4 64-4 65-4 64-4 65-3 64-3 65-4 64-2 65-3 64-2 65-3 65-2 64-2 65-1 64-2 65-1 65-1 64-1 65-1 64v129l-1 65zm-50 0h50-50zm177 5138l-90 43-5-19-8-161-8-162-7-161-8-161-7-161-7-161-6-162-6-161-7-161-5-161-6-162-5-161-5-161-5-162-4-161-5-161-4-161-4-162-3-161-3-162-3-161-3-161-2-161-3-162-1-161-2-162-2-161-1-161-1-162v-161l-1-161v-162h100l1 161v162l1 161 1 161 1 161 1 161 2 162 2 161 2 161 2 161 3 161 3 162 3 161 4 161 4 161 4 161 4 162 4 161 5 161 5 161 5 161 6 161 6 161 6 161 6 161 7 162 6 161 7 161 8 161 8 161 7 161 8 161-5-19zm-90 43l-4-9-1-10 5 19zm1 0h-1l90-43h1l5 19-95 24zm90-43l4 9 1 10-5-19zM49402 44236v-98h10l9 1 9 1 10 2 9 2 9 2 8 3 9 3 9 4 8 4 8 5 7 5 8 5 7 5 6 6 7 6 6 7 6 6 6 7 5 8 5 7 4 8 5 7 4 9 3 8 3 9 2 9 2 9 2 9 1 9 1 9v10h-100v-9l-1-4-1-5-1-4-1-4-1-4-2-4-1-3-3-4-2-4-2-3-3-4-2-3-3-3-3-3-3-3-3-3-3-2-4-3-3-2-4-2-4-2-4-2-4-1-4-2-4-1-4-1h-4l-5-1h-4l-5-1zm-88 87h-100v-10l1-9 1-9 2-9 2-9 2-9 3-9 4-8 3-8 4-8 5-8 5-7 5-8 6-7 6-6 6-7 7-6 6-6 7-5 8-5 7-5 8-5 8-4 9-3 8-4 9-3 9-2 9-2 9-2 10-1 9-1h10v98l-5 1h-4l-5 1h-4l-4 1-5 1-3 2-4 1-4 2-4 2-3 2-4 2-4 3-3 2-3 3-3 3-3 3-3 3-2 3-3 4-2 3-2 4-2 3-2 4-2 4-1 4-1 4-1 4-1 5-1 4v9zm88 86v99l-10-1h-9l-10-1-9-2-9-2-9-3-9-3-9-3-8-3-8-5-7-4-8-5-8-5-7-6-7-5-6-7-6-6-6-6-6-8-5-7-5-7-5-8-4-8-3-8-4-9-3-8-2-9-2-9-2-9-1-9-1-10v-9h100v9l1 4 1 4 1 4 1 5 1 4 2 3 2 4 2 4 2 4 2 3 2 4 3 3 3 3 3 3 3 3 3 3 3 2 4 3 3 2 4 2 4 2 4 2 4 1 3 1 5 2 4 1h5l4 1h9zm88-86h100v9l-1 10-1 9-2 9-2 9-2 9-3 8-3 9-4 8-5 8-4 8-5 7-5 7-6 7-6 7-6 7-6 6-7 5-7 6-8 5-8 5-7 4-8 4-9 4-8 4-9 2-9 3-9 2-9 2-10 1h-9l-10 1v-99h9l4-1h5l4-1 4-2 4-1 4-1 4-2 4-2 4-2 3-2 4-3 3-2 3-3 3-3 3-3 3-3 2-3 3-4 2-3 2-4 3-4 1-3 2-4 1-5 1-4 1-4 1-4 1-4v-9zM51581 36925v9195h-101v-9195l51-49 50 49zm-50-49h50v49l-50-49zm-4257 0h4257v98h-4257l-51-49 51-49zm-51 49v-49h51l-51 49zm0 9195v-9195h101v9195l-50 49-51-49zm51 49h-51v-49l51 49zm4257 0h-4257v-98h4257l50 49-50 49zm50-49v49h-50l50-49z"/><path class="fil6" d="M49452 45431v522h-100v-522z"/><path class="fil6" d="M49125 45653h532v98h-532z"/><path class="fil1 str23" d="M51963 36798h3945v3284h543v-3827h-4488z"/><path class="fil5 str24" d="M55911 50738h-3565c0-1575 1033-2963 2541-3415 332-100 677-150 1024-150"/><path class="fil1 str25" d="M81515 37382H65004v3285h-543v-3827h17054z"/><path class="fil5 str26" d="M55911 40156h-3565c0 1574 1033 2963 2541 3415 332 100 677 150 1024 150"/><path class="fil5 str27" d="M65556 33398h4614c0-449-66-896-195-1326-585-1952-2381-3288-4419-3288"/><path class="fil5 str28" d="M50511 34673h-5152c0-502 73-1000 217-1480 654-2180 2660-3672 4935-3672"/><path class="fil5 str29" d="M59209 74520v173h-8355v-196"/><path class="fil5 str30" d="M50916 73608h8221M59287 73285h-8521"/><path class="fil5 str31" d="M59287 72116v-197h-8521v197"/><path class="fil3" d="M55032 64673h-276v-1916l-476 213v-261l709-309h43z"/><path id="1" class="fil3" d="M57050 64673h-1265v-207l621-823c57-76 104-142 141-200 36-59 66-112 87-160s35-93 43-135 12-84 12-128c0-56-7-109-20-158-14-49-34-92-60-128-25-36-57-65-95-86-38-22-81-32-130-32-63 0-117 12-162 34-45 23-83 54-112 95-29 40-51 89-65 145-14 57-21 119-21 187h-276c0-95 14-185 41-270s67-159 120-222 119-113 198-150 171-55 277-55c92 0 173 14 245 43s133 70 182 124c50 53 88 117 115 192 26 74 39 156 39 247 0 66-9 133-27 200s-43 135-75 202-70 133-112 199c-42 65-88 130-135 193l-504 659h938v234z"/><path id="2" class="fil3" d="M57398 64523c0-50 14-91 44-125 29-33 74-49 133-49s104 16 134 49c31 34 46 75 46 125 0 47-15 87-46 119-30 32-75 48-134 48s-104-16-133-48c-30-32-44-72-44-119z"/><path id="3" class="fil3" d="M59234 63913h252v235h-252v525h-275v-525h-854v-169l840-1568h289v1502zm-825 0h550v-1075l-14 28-536 1047z"/><path class="fil3" d="M59019 43214c129 0 233-20 314-60 81-39 145-93 191-160 47-68 79-145 98-232 18-87 30-178 33-273-50 63-107 114-172 152s-136 57-214 57c-96 0-178-22-246-66s-123-101-167-172c-43-71-75-152-95-242-21-90-31-181-31-274 0-107 13-209 37-304 25-96 63-178 111-249 50-71 111-127 185-168 75-41 161-61 261-61 111 0 205 26 282 78s140 122 188 207c48 86 83 184 105 293s32 222 32 336v105c0 98-3 198-10 299-6 101-21 199-42 293-22 95-53 184-94 267-40 83-94 155-161 217-68 62-150 110-250 146-98 36-217 54-355 54h-20v-243h20zm297-754c36 0 70-7 103-23 34-15 66-36 96-64 30-27 57-58 81-95 25-37 45-76 62-119v-121c0-103-9-194-29-273-19-79-44-146-76-200-32-53-67-94-107-122s-81-42-122-42c-52 0-98 13-139 40-40 27-74 64-101 111-28 47-49 103-63 168-15 64-22 133-22 209 0 67 6 133 19 197 12 63 31 120 57 169 26 50 59 90 99 120 40 31 87 45 142 45z"/><path id="1" class="fil3" d="M60363 43304c0-49 15-91 44-124 30-33 75-50 134-50s104 17 134 50c31 33 46 75 46 124 0 48-15 88-46 120-30 32-75 48-134 48s-104-16-134-48c-29-32-44-72-44-120z"/><path id="2" class="fil3" d="M62115 41191v244h-22c-117 0-215 20-293 61-78 40-141 94-189 161-49 67-84 145-107 232s-37 177-44 272c52-65 111-114 176-144 65-31 135-46 210-46 96 0 179 22 247 65s124 99 168 169 77 149 97 239c22 89 32 180 32 273 0 107-12 208-37 302s-63 175-113 244-113 124-188 163c-74 40-161 60-261 60-105 0-196-25-273-76s-140-117-190-199c-51-83-88-176-112-280-23-103-35-207-35-312v-135c0-106 4-211 13-316 9-106 26-206 49-302 25-96 59-185 102-267 43-83 98-154 165-215 68-60 149-107 245-142 96-34 208-51 338-51h22zm-316 1019c-39 0-77 8-112 23-35 16-67 38-98 65-29 28-56 60-79 96-22 37-41 77-54 120v112c0 102 9 191 29 269 19 77 44 142 76 194 31 53 68 92 108 119s81 40 122 40c53 0 100-13 141-37 41-26 75-62 103-108s50-101 64-164c15-63 22-133 22-208 0-67-7-133-19-195-14-63-33-119-60-166-27-48-61-87-102-116-40-29-87-44-141-44z"/><path class="fil3" d="M54861 50243h-277v-1916l-475 213v-261l709-309h43z"/><path id="1" class="fil3" d="M55655 50092c0-49 15-91 44-124 30-33 74-50 133-50s104 17 134 50c31 33 47 75 47 124 0 48-16 88-47 120-30 32-75 48-134 48s-103-16-133-48c-29-32-44-72-44-120z"/><path id="2" class="fil3" d="M56802 48972h179c59 0 110-10 154-29 44-20 81-48 109-82 28-35 50-76 65-123 14-47 21-98 21-155 0-129-25-228-77-295-51-68-128-102-230-102-49 0-93 9-132 27s-72 44-99 78c-26 33-47 74-62 122-16 48-23 102-23 161h-273c0-87 13-168 41-244 27-75 67-142 118-198s113-101 186-134c72-32 153-48 244-48 87 0 166 13 237 40 71 28 132 68 183 122s91 120 119 199c28 80 42 173 42 279 0 42-6 87-17 133-11 47-28 93-51 137-24 45-55 86-92 125-36 39-81 72-134 97 64 24 117 56 159 94 41 39 73 83 97 130 24 48 41 98 50 151 10 53 14 105 14 155 0 106-15 200-46 282-31 83-74 152-129 207-54 57-118 99-192 129s-155 44-242 44c-85 0-164-13-237-41s-136-68-190-121c-54-54-96-119-127-198-31-78-46-167-46-268h275c0 59 7 113 22 161 14 48 36 90 64 125 28 34 61 61 102 79 39 19 85 28 137 28 102 0 184-34 245-104 61-69 91-175 91-317 0-140-34-244-101-311-68-67-159-100-275-100h-179v-235z"/><path class="fil3" d="M52354 38361h178c59 0 111-9 155-29s80-47 108-82c29-34 51-75 65-122s22-99 22-155c0-129-26-228-77-296-52-68-128-102-231-102-49 0-92 9-131 27-39 19-72 44-99 78s-48 74-63 123c-15 48-22 102-22 160h-274c0-87 14-168 41-243 28-76 67-142 119-198 51-57 113-101 185-134 73-32 154-49 244-49 87 0 166 14 237 41 71 28 132 68 183 121 52 54 92 120 120 200 27 80 42 173 42 278 0 43-6 87-17 134s-28 92-52 137c-24 44-54 86-91 125s-81 71-134 97c64 24 117 55 158 94 42 39 74 82 98 129 24 48 41 99 50 152 9 52 13 104 13 154 0 107-15 200-46 283-31 82-74 151-128 207-55 56-119 99-192 128-75 30-155 45-242 45-85 0-164-14-238-41-73-28-136-68-190-122-53-53-96-119-126-197-31-78-46-168-46-268h275c0 59 7 112 22 161 14 48 35 89 63 124 29 35 62 61 102 80s86 28 138 28c102 0 184-34 244-104 61-69 91-175 91-317 0-141-34-245-101-312-67-66-159-100-275-100h-178v-235z"/><path id="1" class="fil3" d="M53615 39482c0-50 15-91 44-125 30-32 75-49 134-49 58 0 104 17 134 49 30 34 46 75 46 125 0 48-16 88-46 119-30 33-76 49-134 49-59 0-104-16-134-49-29-31-44-71-44-119z"/><path id="2" class="fil3" d="M55620 38668c0 185-14 341-43 468-28 127-68 230-121 308s-116 134-190 169c-75 33-159 51-251 51-91 0-174-18-248-51-75-35-139-91-192-169-54-78-94-181-124-308-29-127-43-283-43-468v-345c0-186 14-341 43-467 30-125 70-226 123-303 53-76 117-131 190-164 75-33 157-50 249-50 91 0 175 17 249 50 75 33 139 88 192 164 52 77 93 178 122 303 30 126 44 281 44 467v345zm-275-394c0-127-7-235-22-324-14-89-36-162-64-217-27-55-62-96-104-121-41-24-89-37-142-37s-100 13-142 37c-40 25-75 66-102 121-29 55-50 128-65 217s-22 197-22 324v439c0 126 7 234 22 325s36 165 65 223 64 101 105 128 89 40 141 40c54 0 102-13 143-40 42-27 76-70 104-128 27-58 48-132 62-223s21-199 21-325v-439z"/><path class="fil5 str32" d="M49192 54179c150 0 271-121 271-271 0-149-121-270-271-270s-271 121-271 270c0 150 121 271 271 271zM48411 53173l383 382M48411 53519l383-383"/><path class="fil5 str32" d="M52100 54947v-3246h-5154v5139h3251v-541l1361-1352z"/><g><path class="fil7" d="M56296 51750h-4196v-98h4196l38 49-38 49zm0-98h38v49l-38-49zm-38 3295v-3246h76v3246l-38 49-38-49zm76 0v49h-38l38-49zm-4234-49h4196v98h-4196v-98z"/></g><path class="fil0 str33" d="M50469 55235c-754 754-1741 988-2206 523s-231-1453 522-2206c753-754 1741-987 2206-522s231 1452-522 2205z"/><g><path class="fil0 str34" d="M58190 28198v-2908h-6388v2908zM51802 28198l6388-2908M51802 25290l6388 2908"/></g><g><path class="fil0 str34" d="M64624 28198v-2908h-6434v2908zM58190 28198l6434-2908M58190 25290l6434 2908"/></g><path class="fil0 str1" d="M46946 56840h3251v2928h-3251zM46946 63019h3251v9097h-3251z"/><path class="fil1 str35" d="M46946 46393h8976v-2532h542v3175h-576v-101h-8942z"/><path class="fil5 str36" d="M78322 63826v-173h-9257v196"/><path class="fil5 str37" d="M69008 65960v173h9371v-160"/><path class="fil5 str38" d="M69058 64658h9244M78302 64981h-9244"/></g></g></svg>