<svg xmlns="http://www.w3.org/2000/svg" width="1280" height="775" viewBox="0 0 128000 77500" shape-rendering="geometricPrecision" text-rendering="geometricPrecision" image-rendering="optimizeQuality" fill-rule="evenodd" clip-rule="evenodd"><defs><style>.str11{stroke:#2b2a29;stroke-width:100.235}.str49{stroke:#4d3026;stroke-width:103.943}.str15{stroke:#4d3026;stroke-width:104.645}.str12{stroke:#1f1b20;stroke-width:81.2903}.str3,.str54{stroke:#4d3026;stroke-width:106.95}.str46{stroke:#4d3026;stroke-width:116.773}.str35{stroke:#4d3026;stroke-width:72.4696}.str42,.str41{stroke:#4d2626;stroke-width:356.535}.str26,.str2,.str10,.str53{stroke:#000;stroke-width:100.235}.str5{stroke:#80dfff;stroke-width:100.235}.str4{stroke:#000}.str4,.str6{stroke-width:100.235}.str6{stroke:#80dfff}.str31,.str32,.str36{stroke:#000;stroke-width:100.235}.str38{stroke:#80dfff;stroke-width:100.235}.str37{stroke:#000}.str37,.str16{stroke-width:100.235}.str16{stroke:#80dfff}.str30,.str17{stroke:#000;stroke-width:100.235}.str29{stroke:#80dfff;stroke-width:100.235}.str7{stroke:#000}.str7,.str33{stroke-width:100.235}.str33{stroke:#2b2a29}.str34{stroke:#000}.str34,.str14{stroke-width:100.235}.str14{stroke:#4d3026}.str28,.str27,.str51,.str52,.str9,.str8{stroke:#1f1b20;stroke-width:100.235}.str45,.str48,.str44,.str1,.str0,.str13,.str47,.str40{stroke:#000;stroke-width:100.235}.str43{stroke:#4d2626}.str43,.str39{stroke-width:100.235}.str39{stroke:#80dfff}.str24,.str23{stroke:#000;stroke-width:100.235}.str19,.str21,.str22,.str20,.str18{stroke:#1f1b20;stroke-width:100.235}.str25,.str55{stroke:#000;stroke-width:100.235}.str50{stroke:#1f1b20;stroke-width:100.235}.fil0,.fil4{fill:none}.fil4{fill-rule:nonzero}.fil7{fill:#2b2a29}.fil1{fill:#d6c0c0}.fil6{fill:#2b2a29}.fil6,.fil8{fill-rule:nonzero}.fil8{fill:#1f1b20}.fil3{fill:#000}.fil3,.fil9{fill-rule:nonzero}.fil9{fill:#4d3026}.fil2{fill:#5d5d52}.fil2,.fil5{fill-rule:nonzero}.fil5{fill:#80dfff}</style></defs><g id="L3"><path id="Bounds" class="fil0" d="M128000 0v77500H0V0z"/></g><g id="L1"><g id="_944482224"><path id="Contour" class="fil1" d="M41203 41892h803v179h3119v-1160h14964v-7933l13204-14V9223h16335v58297H58941v4189h-222v713h-713v223H41158v-214l-712-9v-713h-223v-5972h980V41892z"/><path class="fil2 str0" d="M50308 46884h2884v-1248h357v1827h164v357l-11075-2v17917h-357V47462l10911 1v-222h-2884z"/><path class="fil2 str1" d="M46329 66539v-804h-4323V42605h3119v2986h535v-3565h7532v384h357v-384h7298v446h357v-3042h-1115v1481H45125v1160h-3119v-179h-803v23845h-2831v802z"/><path class="fil2 str2" d="M89628 67520h-4367v-981l3495-2 18-56305h-4160V9223h5014z"/><path class="fil2" d="M63443 66539h-8468v-802h8468z"/><path id="1" class="fil3" d="M54975 66489h8468v100h-8468l-50-50 50-50zm0 100h-50v-50l50 50zm50-852v802h-100v-802l50-50 50 50zm-100 0v-50h50l-50 50zm8518 50h-8468v-100h8468l50 50-50 50zm0-100h50v50l-50-50zm-50 852v-802h100v802l-50 50-50-50zm100 0v50h-50l50-50z"/><path class="fil4 str3" d="M67296 47905v3513c-342 0-682-50-1009-148-1486-446-2504-1813-2504-3365"/><path class="fil5" d="M53977 63762l31 96-121 36-117 41-115 44-113 49-109 53-107 57-104 60-101 64-98 68-94 71-92 75-88 77-84 81-82 83-77 87-74 89-70 92-66 95-62 96-58 99-54 102-50 103-45 106-41 107-36 109-32 111-27 112-23 114-18 115-12 116-8 118-2 118h-107l2-122 8-122 13-120 19-119 23-118 28-116 33-115 38-113 42-111 47-109 52-107 56-105 60-103 64-100 68-98 73-95 76-92 80-90 84-86 87-84 92-80 94-77 98-73 101-70 105-67 107-62 111-59 113-55 117-50 119-47 122-42 124-37zm962-75h-107l54 50h-56l-28 1-28 1-27 1-28 1-28 2-28 2-28 2-27 2-28 2-28 3-27 3-28 3-28 4-27 3-28 4-27 4-28 5-27 4-27 5-27 5-28 6-27 5-27 6-27 6-27 6-27 7-27 6-27 7-27 7-26 8-31-96 27-8 28-7 28-8 28-7 28-6 28-7 28-6 28-6 28-5 28-6 28-5 29-5 28-5 28-5 29-4 28-4 29-4 29-3 28-4 29-3 28-3 29-2 29-2 28-3 29-1 29-2 29-1 28-1 29-1 29-1h58l53 50zm-53-50h53v50l-53-50zm-54 2969v-2919h107v2919h-107z"/><path class="fil4 str4" d="M46462 67520v152l5215-1v-2068h-5348v169"/><path class="fil4 str5" d="M46329 66415h5348"/><path class="fil4 str6" d="M51677 66689h-5215"/><path class="fil6" d="M79497 58452h-277v-1916l-475 212v-260l708-310h44z"/><path id="1" class="fil6" d="M81290 57692h251v234h-251v526h-275v-526h-855v-169l841-1568h289v1503zm-825 0h550v-1076l-14 28-536 1048z"/><path id="2" class="fil6" d="M81862 58301c0-50 15-91 44-125 30-33 74-49 133-49s104 16 134 49c31 34 46 75 46 125 0 48-15 87-46 119-30 33-75 49-134 49s-103-16-133-49c-29-32-44-71-44-119z"/><path id="3" class="fil6" d="M83009 57180h178c59 0 111-9 155-29s80-47 108-82c29-34 51-75 65-122 15-47 22-99 22-155 0-129-26-228-77-296s-128-102-231-102c-49 0-92 9-131 27-39 19-72 44-99 78-26 34-48 74-63 123-15 48-22 102-22 160h-273c0-87 13-168 40-243 28-76 67-142 119-198 51-57 113-101 185-134 73-32 154-49 244-49 87 0 166 14 237 41 71 28 132 68 183 121 52 54 92 120 120 200 27 80 42 173 42 278 0 43-6 87-17 134s-28 92-52 137c-24 44-54 86-91 124-37 40-81 72-134 98 64 23 117 55 158 94 42 39 74 82 98 129 24 48 41 99 50 152 9 52 14 104 14 154 0 106-16 200-47 283-31 82-74 151-128 207-55 56-119 99-192 128-75 30-155 45-242 45-85 0-164-14-237-42-74-27-137-67-191-121-53-53-96-119-126-197-31-78-46-168-46-268h275c0 59 7 112 22 161 14 48 35 89 63 124 29 35 62 61 102 80s86 28 138 28c102 0 184-35 244-104 61-69 91-175 91-317 0-141-33-245-101-312-67-66-159-100-275-100h-178v-235z"/><path class="fil6" d="M79223 15714h-277v-1916l-475 213v-261l708-310h44z"/><path id="1" class="fil6" d="M80087 14579l97-1128h984v266h-752l-53 617c35-24 77-46 127-67s109-31 175-31c88 0 167 18 238 54 70 35 129 86 177 152 49 66 86 145 112 239 26 93 38 197 38 312 0 109-12 209-38 300-25 92-63 171-115 238-51 67-115 119-191 157-77 38-167 57-269 57-78 0-151-13-220-38-69-26-130-64-183-116-54-52-98-117-132-196-34-78-56-171-64-276h258c16 129 53 227 112 292 58 66 134 99 229 99 52 0 100-12 142-35 43-24 79-59 108-103 29-45 51-99 66-163 16-63 24-134 24-213 0-70-8-136-24-198-16-61-39-114-69-159s-68-80-113-106-96-39-153-39c-40 0-73 4-100 10-28 7-52 16-73 29-21 12-42 28-60 46-19 18-38 38-59 60l-219-60z"/><path id="2" class="fil6" d="M81588 15563c0-50 15-91 44-124 30-33 74-50 133-50s104 17 134 50c31 33 47 74 47 124 0 48-16 88-47 120-30 32-75 48-134 48s-103-16-133-48c-29-32-44-72-44-120z"/><path id="3" class="fil6" d="M82653 15473c128 0 232-20 313-60s145-93 192-161c46-67 79-144 97-231 19-87 30-179 33-274-50 63-107 114-172 153-65 38-136 57-214 57-96 0-178-22-246-66s-123-102-167-172c-43-71-75-152-95-242s-31-182-31-274c0-108 13-209 38-304 25-96 62-178 110-250 50-71 111-126 186-167 74-42 160-62 260-62 111 0 205 26 282 79 77 52 140 121 188 207s83 184 105 293 32 222 32 336v105c0 98-3 198-10 299-6 101-20 199-42 293-22 95-53 184-94 267-40 83-94 155-161 216-68 62-150 111-250 147-98 35-217 53-354 53h-21v-242h21zm296-754c36 0 70-8 103-23 34-15 66-37 96-64s57-59 82-95c24-37 44-77 61-119v-121c0-103-9-194-29-273-19-79-44-146-76-200s-67-94-107-123c-40-28-81-42-122-42-52 0-98 14-138 41-41 27-75 64-102 111-28 47-49 103-63 167-15 64-22 134-22 210 0 67 6 133 19 197 12 63 31 120 57 169 26 50 59 90 99 120s87 45 142 45z"/><path class="fil2 str7" d="M74095 10232h3655V9223h-2808V4855h-847v5377z"/><path class="fil4 str8" d="M45660 45591h-3444v1718h3444z"/><path class="fil4 str8" d="M42801 45797h-344l-43 43v1203l43 43h344l43-43v-1203zM43112 47069h1636l43-43v-1203l-43-43h-1636l-43 43v1203z"/><path class="fil4 str9" d="M45040 47069h345l43-43v-1203l-43-43h-345l-43 43v1203z"/><path class="fil4 str10" d="M46951 43361c0-178-145-323-324-323h-432v1595h432c179 0 324-145 324-323v-949zM47954 43594c119 0 216 97 216 216s-97 215-216 215c-120 0-216-96-216-215s96-216 216-216z"/><path class="fil4 str10" d="M46951 44293c0 68-22 135-62 191 428 59 861 89 1294 89 276 0 540-118 724-323 107-119 165-273 165-432s-58-312-165-431c-184-205-448-323-724-323-433 0-866 30-1294 90 40 55 62 122 62 190v949z"/><path class="fil0 str11" d="M48139 43217c396 0 716 269 716 602 0 332-320 601-716 601-395 0-715-269-715-601 0-333 320-602 715-602z"/><path class="fil4 str12" d="M52711 46795h-1829c-65-203-98-414-98-627 0-561 453-1016 1013-1016 559 0 1013 455 1013 1016 0 213-33 424-99 627z"/><path class="fil4 str12" d="M51907 46090c0-48-39-88-87-88-49 0-88 40-88 88 0 49 39 88 88 88 48 0 87-39 87-88zM51820 46713v-338M51982 46551h-338"/><path class="fil4 str12" d="M51117 46117c10 63 54 114 114 134 189 64 387 96 586 96 200 0 398-32 587-96 60-20 104-71 114-134 6-37 9-74 9-112 0-393-318-711-710-711-391 0-709 318-709 711 0 38 3 75 9 112z"/><path class="fil2 str13" d="M88774 10232l-18 56305h-3407v-802h2652V11005h-3253v-773h4026z"/><path class="fil4 str14" d="M62081 47905v1698c165 0 329-24 488-72 718-215 1210-876 1210-1626"/><path class="fil4 str15" d="M60058 39304h-4323c0-420 62-839 182-1242 549-1828 2232-3081 4141-3081"/><path class="fil4 str16" d="M62974 66870h7489M70463 66595h-7020"/><path class="fil4 str17" d="M70574 65737v-227h-7131v227"/><path class="fil6" d="M63653 58452h-277v-1916l-475 212v-260l708-310h44z"/><path id="1" class="fil6" d="M64756 57180h179c59 0 110-9 154-29s81-47 109-82c29-34 51-75 65-122s22-99 22-155c0-129-26-228-77-296-52-68-129-102-231-102-49 0-92 9-132 27-38 19-71 44-98 78s-48 74-63 123c-15 48-23 102-23 160h-273c0-87 13-168 41-243 28-76 67-142 118-198 52-57 113-101 186-134 73-32 154-49 244-49 87 0 166 14 237 41 71 28 132 68 183 121 51 54 91 120 119 200s42 173 42 278c0 43-6 87-16 134-11 47-28 92-52 137-24 44-54 86-91 124-37 40-82 72-135 98 65 23 118 55 159 94s74 82 98 129c24 48 40 99 49 152 10 52 14 104 14 154 0 106-15 200-46 283-31 82-74 151-128 207-55 56-119 99-193 128-74 30-155 45-242 45-85 0-164-14-237-42-73-27-136-67-190-121-54-53-96-119-126-197-31-78-47-168-47-268h276c0 59 7 112 21 161 15 48 36 89 64 124s62 61 102 80 85 28 137 28c103 0 184-35 245-104s91-175 91-317c0-141-34-245-101-312-68-66-159-100-275-100h-179v-235z"/><path id="2" class="fil6" d="M66018 58301c0-50 15-91 44-125 30-33 74-49 133-49s104 16 134 49c31 34 47 75 47 125 0 48-16 87-47 119-30 33-75 49-134 49s-103-16-133-49c-29-32-44-71-44-119z"/><path id="3" class="fil6" d="M67978 56780c0 113-25 213-76 301-50 88-118 157-202 207 48 25 92 56 132 93s74 79 102 127c28 47 49 98 65 154 15 56 22 115 22 179 0 104-15 195-47 275-30 80-73 147-127 201-54 55-118 96-192 123-74 29-153 43-239 43s-165-14-239-43c-73-27-137-68-191-123-54-54-96-121-127-201s-47-171-47-275c0-64 8-123 22-179s36-107 63-155 61-90 99-128c39-37 83-68 132-93-86-50-152-118-201-205-48-89-73-188-73-301 0-99 14-186 42-264 28-77 67-142 117-195s108-93 177-121 145-42 226-42c83 0 158 14 227 42s128 68 178 121c49 53 88 118 115 195 28 78 42 165 42 264zm-232 1055c0-63-8-122-23-174-16-53-38-98-67-137-29-37-64-66-105-87s-87-31-137-31c-52 0-98 10-139 31-40 21-75 50-102 87-28 39-50 84-65 137-15 52-23 111-23 174 0 130 29 232 87 304 57 73 139 109 244 109 106 0 188-36 244-109 58-72 86-174 86-304zm-42-1051c0-56-7-108-20-155-14-48-33-89-58-123-26-35-56-62-91-82s-75-30-119-30c-43 0-82 9-117 27-36 19-66 44-91 78s-44 74-58 123c-14 48-21 102-21 162 0 58 7 111 21 159 13 47 32 88 57 122 26 34 56 60 92 78 35 18 74 27 117 27 44 0 84-9 120-27 35-18 65-44 90-78s44-75 58-122c13-48 20-101 20-159z"/><path class="fil6" d="M65924 41438h-277v-1916l-475 213v-261l709-309h43z"/><path id="1" class="fil6" d="M67027 40167h179c59 0 110-10 154-30 45-19 81-47 109-81 29-35 51-76 65-123s22-98 22-155c0-129-26-228-77-296-52-68-129-101-231-101-49 0-92 9-132 27-38 18-71 44-98 78-27 33-48 74-63 122s-23 102-23 161h-273c0-87 14-168 41-244 28-75 67-142 118-198 52-56 113-101 186-134 73-32 154-48 244-48 87 0 166 13 237 40 71 28 132 68 183 122 52 53 91 120 119 199 28 80 42 173 42 279 0 42-5 87-16 133-11 47-28 93-52 137-24 45-54 86-91 125s-81 72-134 97c64 24 117 56 158 94 42 39 74 83 98 130 24 48 41 98 50 151 9 52 13 104 13 155 0 106-15 200-46 282-31 83-74 152-128 207-55 57-119 99-193 129-74 29-155 44-242 44-84 0-163-13-237-41-73-28-136-68-190-122-54-53-96-118-126-197-31-78-46-167-46-268h275c0 59 7 113 22 161 14 48 35 90 63 125 28 34 62 61 102 79 40 19 85 28 137 28 103 0 185-34 245-104 61-69 91-175 91-317 0-140-34-244-101-311-68-67-159-100-275-100h-179v-235z"/><path id="2" class="fil6" d="M68289 41287c0-49 15-91 44-124 30-33 75-50 133-50 59 0 104 17 135 50 30 33 46 75 46 124 0 48-16 88-46 120-31 32-76 48-135 48-58 0-103-16-133-48-29-32-44-72-44-120z"/><path id="3" class="fil6" d="M70126 40678h252v235h-252v525h-275v-525h-855v-170l841-1568h289v1503zm-825 0h550v-1075l-14 28-536 1047z"/><path class="fil6" d="M50231 44938h-276v-1916l-476 213v-261l709-309h43z"/><path id="1" class="fil6" d="M51025 44788c0-50 15-91 44-125 30-33 75-49 134-49 58 0 104 16 134 49 31 34 46 75 46 125 0 47-15 87-46 119-30 32-76 48-134 48-59 0-104-16-134-48-29-32-44-72-44-119z"/><path id="2" class="fil6" d="M51933 43804l98-1128h983v265h-752l-53 617c35-24 77-46 127-67 51-20 109-30 175-30 88 0 167 18 238 53 70 36 129 87 177 153 49 65 86 145 112 238s39 197 39 313c0 108-13 209-39 300-25 92-63 171-115 238-51 67-115 119-191 157-77 38-167 57-269 57-78 0-151-13-220-39-69-25-130-64-183-115-54-52-98-117-132-196s-55-171-63-277h257c16 130 53 227 112 293 58 66 134 99 229 99 52 0 100-12 143-36 42-24 78-58 107-103 29-44 51-98 67-162 15-64 23-135 23-214 0-70-8-136-24-197s-39-114-69-159-68-81-113-107c-45-25-96-39-153-39-39 0-73 4-100 11-28 6-52 16-73 28-21 13-41 28-60 46s-38 39-59 60l-219-59z"/><path class="fil4 str18" d="M45214 54663v2576h-2576v-2576z"/><path class="fil4 str19" d="M43394 56132c-202 0-365 163-365 365s163 365 365 365c201 0 365-163 365-365s-164-365-365-365z"/><path class="fil4 str20" d="M43394 55029c-202 0-365 164-365 365 0 202 163 365 365 365 201 0 365-163 365-365 0-201-164-365-365-365z"/><path class="fil4 str21" d="M44459 56132c-202 0-365 163-365 365s163 365 365 365c201 0 365-163 365-365s-164-365-365-365z"/><path class="fil4 str22" d="M44459 55029c-202 0-365 164-365 365 0 202 163 365 365 365 201 0 365-163 365-365 0-201-164-365-365-365z"/><path class="fil0 str11" d="M42638 57239h2576v8496h-2576z"/><path class="fil2 str23" d="M78395 67520h-7954v-981h7954z"/><path class="fil2 str24" d="M78302 66539h-7728v-802h2719V47820h-5906v-367l5906 7v-2234h1972l1 367h-1171v20144h4207z"/><path class="fil2 str25" d="M38372 66539v989l8090-9v-980h-8090z"/><path class="fil2 str26" d="M73293 32964l-25583 14v-2897h-1693v1115h579v2897h13507v736h1114v-737l13948-14v-1115l-1070 1V11005h3521v-773h-3521V4855h-802z"/><path class="fil4 str27" d="M50308 45591h-3445v1718h3445z"/><path class="fil4 str27" d="M47449 45797h-344l-44 43v1203l44 43h344l43-43v-1203zM47759 47069h1636l43-43v-1203l-43-43h-1636l-43 43v1203z"/><path class="fil4 str28" d="M49688 47069h344l44-43v-1203l-44-43h-344l-43 43v1203z"/><path class="fil6" d="M42479 69545h178c59 0 111-9 155-29s80-47 109-82c28-34 50-75 64-122 15-47 22-99 22-155 0-129-25-228-77-296-51-68-128-102-231-102-48 0-92 9-131 27-39 19-72 44-99 78-26 34-48 74-62 123-16 48-23 102-23 160h-273c0-87 13-168 40-243 28-76 67-142 119-198 51-57 113-101 185-134 73-32 154-49 244-49 87 0 166 14 237 41 72 28 133 68 183 121 52 54 92 120 120 200 27 80 42 173 42 278 0 43-6 87-17 134s-28 92-52 137c-24 44-54 86-91 125s-81 71-134 97c64 23 117 55 158 94 42 39 74 82 98 129 24 48 41 99 50 152 9 52 14 104 14 154 0 107-16 200-46 283-32 82-75 151-129 207s-119 99-192 128c-75 30-155 45-242 45-85 0-164-14-237-41-73-28-137-68-191-122-53-53-96-119-126-197-31-78-46-168-46-268h275c0 59 7 112 22 161 14 48 36 89 64 124s61 61 101 80 86 28 138 28c102 0 184-35 244-104 61-69 92-175 92-317 0-141-34-245-102-312-67-66-158-100-275-100h-178v-235z"/><path id="1" class="fil6" d="M43741 70666c0-50 14-91 44-125 29-32 74-49 133-49s104 17 134 49c31 34 46 75 46 125 0 48-15 88-46 119-30 33-75 49-134 49s-104-16-133-49c-30-31-44-71-44-119z"/><path id="2" class="fil6" d="M44805 70576c129 0 233-20 314-60s144-93 191-161c47-67 79-145 98-232 18-87 29-178 33-273-50 63-108 114-172 152-65 39-136 58-214 58-96 0-178-22-246-66s-124-102-167-172c-44-71-75-152-96-242-20-90-30-182-30-274 0-108 12-209 37-304 25-96 62-179 111-250s111-126 185-167c74-42 161-62 261-62 110 0 204 26 282 79 77 52 139 121 188 207 48 86 83 184 105 293 21 109 32 222 32 336v105c0 98-3 197-10 299-7 101-21 199-43 293-21 95-53 184-93 267s-94 155-162 216c-67 62-150 111-249 147-99 35-218 53-355 53h-20v-242h20zm297-754c35 0 70-8 103-23 33-16 66-37 96-64s57-59 81-95c25-37 45-77 62-119v-122c0-102-10-193-29-272s-44-146-76-200-68-95-107-123c-40-28-81-42-122-42-52 0-99 14-139 41s-74 64-102 111c-27 47-48 102-62 167-15 64-22 134-22 210 0 67 6 133 19 196 12 64 31 121 57 170 26 50 59 90 99 120 39 30 87 45 142 45z"/><path id="3" class="fil6" d="M46855 69899c0-151 10-292 32-424 21-132 49-254 85-366s77-214 123-306c46-93 93-174 142-244 48-71 97-131 144-181 48-49 92-88 133-115l54 190c-49 47-99 111-150 193-51 81-99 182-142 302s-78 258-105 416c-28 157-41 335-41 531v22c0 197 13 374 41 532 27 157 62 295 105 416 43 120 91 222 142 306s101 151 150 200l-54 176c-41-27-85-65-133-115-47-50-96-110-144-181-49-71-96-152-142-243-46-92-87-193-123-305s-64-233-85-365c-22-131-32-273-32-424v-15z"/><path id="4" class="fil6" d="M48654 70817h-276v-1916l-476 212v-260l709-310h43z"/><path id="5" class="fil6" d="M49448 70666c0-50 15-91 44-125 30-32 75-49 134-49 58 0 104 17 134 49 31 34 46 75 46 125 0 48-15 88-46 119-30 33-76 49-134 49-59 0-104-16-134-49-29-31-44-71-44-119z"/><path id="6" class="fil6" d="M51509 70817h-1265v-207l622-823c56-76 103-143 140-201s66-111 87-159c22-48 36-93 44-136 8-42 11-84 11-128 0-56-6-108-20-158-13-48-33-91-59-127-26-37-57-66-96-87-37-21-81-32-129-32-63 0-118 12-162 35-45 22-83 54-112 94-30 40-52 89-65 145-15 57-22 119-22 188h-275c0-96 14-185 41-271 26-85 67-158 119-222 53-63 119-113 199-150 79-37 171-55 277-55 91 0 172 15 244 44 73 28 134 70 183 123 50 53 88 117 115 192 26 75 39 157 39 247 0 66-9 133-27 200-18 68-43 135-76 202-32 67-69 133-112 199-42 66-87 130-135 193l-503 659h937v235z"/><path id="7" class="fil6" d="M52430 69914c0 151-10 293-31 424-22 132-50 253-86 365s-76 213-122 305c-45 91-93 172-141 243-49 71-97 131-146 181-48 50-92 88-132 115l-55-176c49-46 99-111 151-195 52-83 99-185 141-306 43-122 78-262 105-420 28-158 41-336 41-533v-22c0-196-14-375-44-534-30-160-66-301-110-421-44-122-91-224-142-308-51-83-98-148-142-193l55-176c40 27 84 66 132 115 49 50 97 110 146 181 48 70 96 151 141 244 46 92 86 194 122 306s64 234 86 366c21 132 31 273 31 424v15z"/><path class="fil4 str29" d="M78402 66869h6886M85288 66594h-6886"/><path class="fil4 str30" d="M85399 65735v-227h-7131v227"/><path class="fil4 str31" d="M78402 67518v134h6897v-268"/><path class="fil4 str32" d="M63577 67520v227h6864v-227"/><path class="fil0 str11" d="M42638 50583h2576v4080h-2576z"/><path class="fil4 str33" d="M45214 50609h-2576v-2576h2576z"/><path class="fil4 str33" d="M43119 48651v1288c0 214 173 387 386 387h1074c213 0 386-173 386-387v-1288c0-213-173-386-386-386h-1074c-213 0-386 173-386 386z"/><path class="fil4 str34" d="M43600 49089c118 0 214 96 214 215 0 118-96 215-214 215-119 0-215-97-215-215 0-119 96-215 215-215zM42741 49304h429M42981 49098v429"/><path class="fil4 str35" d="M53549 42560h2994c0 292-43 581-127 860-379 1267-1545 2134-2867 2134"/><path class="fil4 str36" d="M84614 9183v-196h-6864v196"/><path class="fil4 str37" d="M77616 10966v173l7132 4v-177"/><path class="fil4 str38" d="M77728 10057h6886M84748 10380h-7132"/><path class="fil2" d="M63577 67520h-8602v-981h8602z"/><path id="1" class="fil3" d="M54975 67470h8602v100h-8602l-50-50 50-50zm0 100h-50v-50l50 50zm50-1031v981h-100v-981l50-50 50 50zm-100 0v-50h50l-50 50zm8652 50h-8602v-100h8602l50 50-50 50zm0-100h50v50l-50-50zm-50 1031v-981h100v981l-50 50-50-50zm100 0v50h-50l50-50z"/><path class="fil4 str39" d="M40356 71709v-4011M41158 72512h16848"/><path class="fil4 str40" d="M40891 67698v4278h17382v-4329M40223 67698v4011M41158 72645h16848M58941 71709v-4062"/><path class="fil4 str39" d="M58808 71709v-4190"/><path class="fil4 str40" d="M58941 67520v4189"/><path class="fil4 str41" d="M40891 67726h-668"/><path class="fil4 str42" d="M40891 71709h-668M41158 71976v669"/><path class="fil4 str43" d="M41158 72422h-712v-713"/><path class="fil4 str42" d="M58273 67698h668M58273 71709h668M58006 71976v669"/><path class="fil4 str43" d="M58006 72422h713v-713"/><path class="fil4 str42" d="M45370 71976v669M49582 71976v669M53794 71976v669"/><path class="fil3" d="M44730 43363h-100l50 50h-2674v-100h2674l50 50zm-50-50h50v50l-50-50zm-50 1833v-1783h100v1783l-50 50-50-50zm100 0v50h-50l50-50zm-2724-50h2674v100h-2674v-100z"/><path class="fil2 str44" d="M46106 42026v3565h757v357h-1114v-3922z"/><path class="fil0 str11" d="M77943 18083h6531v9382h-6531z"/><path class="fil6" d="M79656 20038h251v234h-251v526h-276v-526h-854v-169l841-1568h289v1503zm-825 0h549v-1076l-13 28-536 1048z"/><path id="1" class="fil6" d="M81227 20038h251v234h-251v526h-275v-526h-855v-169l841-1568h289v1503zm-825 0h550v-1076l-14 28-536 1048z"/><path id="2" class="fil6" d="M81799 20647c0-50 14-91 44-125 29-33 74-49 133-49s104 16 134 49c31 34 46 75 46 125 0 48-15 87-46 119-30 33-75 49-134 49s-104-16-133-49c-30-32-44-71-44-119z"/><path id="3" class="fil6" d="M83803 19833c0 185-14 341-42 468-29 127-69 230-122 308-52 78-115 134-190 168-74 34-158 52-251 52-90 0-173-18-248-52s-139-90-192-168-94-181-123-308c-30-127-44-283-44-468v-345c0-186 14-341 44-467 29-125 70-226 122-303 53-76 117-131 191-164s157-50 248-50c92 0 175 17 250 50 74 33 138 88 191 164 53 77 93 178 123 303 29 126 43 281 43 467v345zm-275-394c0-127-7-235-21-324-15-89-36-162-65-217-27-55-62-96-104-121-41-24-89-37-142-37s-100 13-141 37c-41 25-76 66-103 121-28 55-50 128-65 217s-22 197-22 324v439c0 126 7 234 22 325s37 165 65 223c29 58 64 101 105 128 42 27 89 40 141 40 55 0 102-13 144-40 41-27 76-70 103-128 28-58 48-132 62-223s21-199 21-325v-439z"/><path id="4" class="fil7" d="M78433 21087h5550v144h-5550z"/><path id="5" class="fil7" d="M83983 21087v144z"/><path class="fil6" d="M79863 21804l-778 2101h-288l777-2026h-1008v-237h1297z"/><path id="1" class="fil6" d="M81142 21641v244h-21c-118 0-215 20-294 61-78 40-141 93-189 161-48 67-84 145-107 232s-37 177-43 272c52-66 110-114 175-144 66-31 136-46 210-46 96 0 179 22 248 64 67 43 124 100 168 170s76 149 97 238 31 181 31 274c0 107-12 208-37 302s-63 175-113 244-113 123-187 163c-75 40-162 60-261 60-106 0-197-25-273-76-77-51-141-117-191-200-50-82-87-175-111-279s-36-208-36-312v-135c0-106 4-211 13-316 9-106 26-206 50-302s58-185 101-268c43-82 98-153 166-214 67-60 149-108 244-142 96-34 209-51 339-51h21zm-315 1019c-40 0-77 8-112 23-36 16-68 37-98 65s-57 59-79 96c-23 37-41 76-55 119v113c0 102 10 191 29 269 19 77 45 141 76 194 32 52 68 92 108 119 41 27 81 40 123 40 53 0 99-13 140-38s76-61 104-107 49-101 63-164c15-63 22-133 22-208 0-67-6-133-19-195-13-63-33-119-60-166-27-49-60-87-101-117-40-28-88-43-141-43z"/><path id="2" class="fil6" d="M81798 23754c0-50 15-91 44-124 30-33 74-50 133-50s104 17 134 50c31 33 46 74 46 124 0 48-15 88-46 120-30 32-75 48-134 48s-103-16-133-48c-29-32-44-72-44-120z"/><path id="3" class="fil6" d="M82945 22633h178c59 0 111-9 155-29 44-19 80-47 108-81 29-35 51-76 65-123 15-47 22-99 22-155 0-129-25-228-77-296-51-68-128-102-231-102-48 0-92 9-131 27-39 19-72 45-99 78-26 34-48 75-63 123s-22 102-22 161h-273c0-87 13-168 40-244 28-76 67-142 119-198 51-56 113-101 185-134 73-32 154-49 244-49 87 0 166 14 237 41 71 28 132 68 183 122 52 53 92 120 120 199 27 80 42 173 42 279 0 42-6 87-17 133-11 47-28 93-52 137-24 45-54 86-91 125s-81 71-134 97c64 24 117 55 158 94 42 39 74 82 98 130 24 47 41 98 50 151 9 52 14 104 14 155 0 106-16 200-47 282-31 83-74 151-128 207-55 56-119 99-192 129-75 29-155 44-242 44-85 0-164-14-237-41-74-28-137-68-191-122-53-53-96-119-126-197-31-78-46-168-46-268h275c0 59 7 113 22 161 14 48 35 90 63 125 29 34 62 60 102 79s86 28 138 28c102 0 184-34 244-104 61-69 91-175 91-317 0-141-33-244-101-311-67-67-158-101-275-101h-178v-235z"/><path id="4" class="fil7" d="M78433 24194h5550v145h-5550z"/><path id="5" class="fil7" d="M83983 24194v145z"/><path class="fil6" d="M79862 24911l-778 2101h-287l776-2026h-1008v-237h1297z"/><path id="1" class="fil6" d="M81433 24911l-778 2101h-287l776-2026h-1008v-237h1297z"/><path id="2" class="fil6" d="M81799 26861c0-49 14-91 44-124 29-33 74-50 133-50s104 17 134 50c31 33 46 75 46 124 0 48-15 88-46 120-30 32-75 48-134 48s-104-16-133-48c-30-32-44-72-44-120z"/><path id="3" class="fil6" d="M82706 25878l98-1129h984v266h-752l-53 617c34-24 76-46 126-67 51-21 109-31 175-31 88 0 167 18 238 54 71 35 129 86 178 152 48 66 85 145 111 239 26 93 39 197 39 312 0 109-13 209-38 301-26 91-64 171-115 238-51 66-116 118-192 157-77 37-167 56-269 56-78 0-151-12-220-38-69-25-130-64-183-115-54-52-98-118-132-197-34-78-55-170-63-276h258c15 129 52 227 111 293 58 66 135 98 229 98 53 0 100-11 143-35 42-24 78-58 107-103s51-99 67-162c16-64 23-135 23-214 0-70-8-136-24-197s-39-114-69-159c-30-46-68-81-113-107s-96-39-152-39c-40 0-74 4-101 10-27 7-52 17-73 29-21 13-41 28-60 46-18 18-38 38-59 60l-219-59z"/><path class="fil2 str45" d="M80029 40546h-366v4680h-229v367h8567v-382l-7972 15z"/><path class="fil4 str46" d="M79342 45225v-3874c-377 0-752 55-1113 164-1639 491-2761 1999-2761 3710"/><path class="fil2 str47" d="M79631 37281v-3203h-369v-357h8739v357h-8013v3203z"/><g><path class="fil2" d="M88001 34674h-4216v-357h4216v357zm0 9965v357h-7972v-357h7972z"/><path id="1" class="fil4 str48" d="M88001 34674h-4216v-357h4216m0 10322v357h-7972v-357h7972z"/></g><g><path class="fil8" d="M87549 43429h104l-1 30-2 30-3 29-5 29-7 29-7 28-9 27-10 27-12 26-12 26-14 24-15 25-16 23-17 23-18 21-19 21-20 20-21 20-21 18-23 17-23 16-24 15-25 14-26 12-26 12-27 10-28 9-28 8-29 7-29 5-29 3-30 2-6-103 25-2 25-3 24-4 24-6 23-6 23-8 22-8 22-10 21-10 21-12 20-12 19-14 19-14 18-15 17-16 17-16 15-18 15-18 14-18 14-20 12-20 11-21 11-21 9-22 9-22 7-22 6-23 6-24 4-24 3-24 2-25v-25zm104-1492v1492h-104v-1492h104zm-579-503v-104h3l30 2 29 4 29 5 29 6 28 8 28 9 27 11 26 11 26 13 25 14 24 15 23 16 23 17 21 18 21 19 20 20 19 21 18 22 17 22 16 24 15 24 14 25 12 25 12 26 10 27 9 28 7 28 7 28 5 29 3 30 2 29 1 31h-104v-25l-2-25-3-25-4-24-6-23-6-23-7-23-9-22-9-22-11-21-11-21-12-20-14-19-14-19-15-18-15-17-17-17-17-16-18-15-19-14-19-13-20-13-21-11-21-11-22-9-22-9-23-7-23-7-24-5-24-4-25-3-25-2h3zm0-104h3-3zm0 0v104h-3l3-104zm0 104h-3 3zm-4401-111v-104h137l138 1h138l137 1 138 1 138 1 137 1 138 2 138 2 137 2 138 2 138 3 137 2 138 3 138 4 137 3 138 3 138 4 137 4 138 4 137 5 138 5 138 4 137 5 138 6 137 5 138 6 137 6 138 6 137 7 138 6 138 7-6 104-137-7-137-7-138-6-137-6-138-6-137-6-137-5-138-6-137-5-138-4-137-5-137-5-138-4-137-4-138-4-137-3-138-3-137-4-138-3-137-2-138-3-137-2-138-2-137-2-138-1-137-2-138-1-137-1-138-1h-137l-138-1h-137zm0-52v52-52zm-1760 136l-10-104 55-5 55-5 55-5 56-4 55-5 55-4 55-4 55-4 56-4 55-4 55-4 56-3 55-3 55-3 56-3 55-3 55-2 55-3 56-2 55-2 55-2 56-2 55-1 56-2 55-1 55-1 56-1 55-1h56l55-1h111v104h-55l-55 1h-55l-56 1h-55l-55 1-55 1-55 1-55 2-55 1-55 2-55 2-55 2-55 2-55 3-55 2-55 3-55 3-55 3-55 3-55 3-55 4-55 4-55 3-55 4-55 5-55 4-55 4-55 5-54 5-55 5-55 5zm-5-52l5 52-5-52zm-451 553h-104l1-29 2-29 3-29 5-28 6-27 7-28 9-26 9-26 11-26 12-25 13-24 14-24 15-23 16-22 17-22 18-21 19-20 20-18 20-19 22-17 22-16 23-15 24-14 24-14 26-12 25-11 27-9 27-9 27-7 28-6 29-5 29-4 10 104-24 3-24 4-23 5-23 6-22 7-22 8-21 9-21 10-21 11-19 12-19 13-19 13-18 14-17 15-16 16-16 16-15 18-14 17-13 19-13 19-11 20-11 20-10 21-9 21-8 21-7 23-6 22-5 23-4 23-3 24-1 24-1 24zm-104 1549v-1549h104v1549h-104zm560 501l-10 104-29-3-29-5-28-6-27-8-27-8-27-10-25-11-26-12-24-13-24-14-23-16-22-16-22-17-20-18-20-19-19-20-18-21-17-21-16-22-15-23-14-24-13-25-12-25-11-25-9-26-9-27-7-27-6-28-5-28-3-29-2-29-1-29h104l1 25 1 24 3 23 4 24 5 22 6 23 7 22 8 22 9 21 10 21 11 20 11 19 13 19 13 19 14 18 15 17 16 16 16 16 17 15 18 15 19 13 19 13 19 11 21 11 20 10 22 9 22 8 22 7 23 7 23 5 24 3 24 3zm-5 52l5-52-5 52zm1765 32v104h-166l-56-1-55-1-56-1-55-1-55-1-56-1-55-2-56-2-55-2-55-2-56-2-55-2-55-3-55-3-56-2-55-4-55-3-56-3-55-4-55-3-56-4-55-4-55-4-55-5-55-4-56-5-55-5-55-5-55-5 10-104 55 6 55 5 54 4 55 5 55 5 55 4 55 4 55 4 55 4 55 4 55 3 55 3 55 4 55 3 55 3 55 2 55 3 55 2 55 2 55 2 55 2 55 2 55 2 55 1 55 1 55 1 55 1 55 1h56l55 1h110zm0 52v-52 52zm4401-162v104l3-1-138 7-138 7-137 6-138 7-137 5-138 6-137 6-138 5-137 5-138 5-138 5-137 4-138 4-137 4-138 4-138 4-137 3-138 3-138 3-137 3-138 2-138 2-137 3-138 1-138 2-137 1-138 2-138 1h-137l-138 1h-275v-104h275l137-1 138-1 137-1 138-1 137-1 138-2 137-2 138-2 137-2 138-2 137-3 138-3 137-3 138-3 137-4 138-4 137-4 138-4 137-4 137-5 138-5 137-5 138-5 137-6 137-6 138-6 137-6 138-6 137-7 137-6h3zm-3 0h3-3zm3 104v-104l3 103-3 1zm3-1l-2 1h-1l3-1zM86404 42700h-104v-9l1-8 1-8 2-9 1-8 3-8 2-8 3-8 4-7 3-7 4-7 5-7 4-7 6-6 5-6 5-5 6-6 6-6 6-4 7-5 7-5 7-4 7-3 7-4 8-3 8-2 8-3 8-1 8-2 9-1 8-1h9v104h-4l-3 1h-6l-3 1-3 1-3 1-3 1-3 1-3 2-2 2-2 1-3 2-3 2-2 2-2 2-2 2-3 3-1 2-2 2-2 3-1 2-1 3-2 3-1 3-1 3-1 3-1 3v6l-1 4v3zm64 64v104l-9-1h-8l-9-1-8-2-8-2-8-2-8-3-8-3-7-3-7-4-7-4-7-4-7-5-6-5-6-5-6-5-5-6-6-6-5-7-4-6-5-7-4-7-3-8-4-7-3-7-2-8-3-8-1-8-2-9-1-8-1-9v-8h104v3l1 4v6l1 3 1 3 1 3 1 3 2 3 1 2 1 3 2 3 2 2 2 2 2 3 2 2 2 2 2 2 3 2 2 2 3 1 2 2 3 1 3 2 3 1 3 1 3 1h3l3 1h6l4 1zm64-64h104l-1 8v9l-1 9-2 8-2 8-2 8-3 8-3 7-3 8-4 7-4 7-4 7-5 6-5 6-5 7-6 6-6 5-5 5-7 5-6 5-7 4-8 5-7 3-7 3-7 3-8 3-8 2-8 2-9 2-8 1h-9l-8 1v-104l3-1h7l3-1h2l4-1 3-1 2-1 4-2 2-1 3-2 2-1 3-2 2-2 3-2 2-2 2-2 2-2 2-3 2-3 1-2 2-3 1-3 2-2 1-3 1-3 1-3v-3l1-4v-6l1-3zm-64-64v-104h8l9 1 8 1 9 2 7 1 9 3 8 2 7 3 8 4 6 3 8 4 7 5 6 5 6 4 7 6 5 5 6 6 5 6 5 6 5 7 4 7 4 7 4 7 3 7 3 8 3 8 2 8 2 8 2 8 1 9v8l1 9h-104l-1-3v-7l-1-3v-3l-1-3-1-3-1-3-2-2-1-4-2-2-1-2-2-3-2-3-2-2-2-2-3-2-2-2-2-2-3-2-2-1-3-2-3-2-3-1-2-1-3-1-3-1-3-1h-6l-4-1h-3zM80157 40865h7844v104h-7844l-52-52 52-52zm-52 52v-52h52l-52 52zm0 3566v-3566h104v3566l-52 52-52-52zm52 52h-52v-52l52 52zm7844 0h-7844v-104h7844l52 52-52 52zm52-52v52h-52l52-52zm0-3566v3566h-104v-3566l52-52 52 52zm-52-52h52v52l-52-52z"/><path class="fil8" d="M87413 42648h445v104h-445z"/><path class="fil8" d="M87592 42932v-446h104v446z"/></g><g><path class="fil9" d="M83106 37434h-3038v-106h3038l53 53-53 53zm0-106h53v53l-53-53zm-2150 3049l-30-102 117-38 115-43 112-47 110-51 107-56 104-60 101-63 99-68 95-71 93-75 89-78 86-82 83-85 79-88 75-91 72-94 69-97 64-100 61-102 57-104 52-107 49-109 44-111 40-113 36-115 31-116 26-119 22-119 17-122 13-122 7-124 3-124h105l-3 129-8 128-13 126-17 126-23 124-28 122-32 121-37 119-41 117-46 115-50 113-55 110-58 108-63 106-67 103-70 100-75 97-78 95-82 91-86 88-89 84-92 81-96 78-99 74-102 70-105 65-108 62-110 58-114 53-116 49-119 44-121 40zm-888 132v-106h27l27-1h27l27-1 28-2 27-1 27-1 27-2 27-3 27-2 28-3 26-2 27-4 27-3 27-3 27-4 27-5 27-4 27-4 26-5 27-5 27-6 26-5 27-6 26-6 27-7 26-6 27-7 26-7 26-7 26-8 27-8 30 102-27 8-28 8-27 7-27 8-27 7-27 7-28 6-27 6-28 6-27 6-28 6-27 5-28 5-28 5-28 4-28 5-27 4-28 3-28 4-28 3-28 3-28 3-28 2-28 2-28 2-28 2-28 2-29 1-28 1h-28l-28 1h-28zm0-53z"/></g><path class="fil6" d="M76404 38790h178c59 0 111-10 155-29 44-20 80-48 108-82 29-35 51-76 65-123 15-47 22-98 22-155 0-129-25-228-77-296-51-67-128-101-231-101-48 0-92 9-131 27s-72 44-99 78c-26 33-48 74-63 122s-22 102-22 161h-273c0-87 13-168 40-244 28-75 67-142 119-198 51-56 113-101 185-134 73-32 154-48 244-48 87 0 166 13 237 40 71 28 132 68 183 122 52 54 92 120 120 199 27 80 42 173 42 279 0 42-6 87-17 133-11 47-28 93-52 137-24 45-54 86-91 125s-81 72-134 97c64 24 117 56 158 94 42 39 74 83 98 130 24 48 41 98 50 151s14 104 14 155c0 106-16 200-47 282-31 83-74 152-128 207-55 57-119 99-192 129-75 30-155 44-242 44-85 0-164-13-237-41-74-28-137-68-191-121-53-54-96-119-126-198-31-78-46-167-46-268h275c0 59 7 113 22 161 14 48 35 90 63 125 29 34 62 61 102 79 40 19 86 28 138 28 102 0 184-34 244-104 61-69 91-175 91-317 0-140-33-244-101-311-67-67-158-100-275-100h-178v-235z"/><path id="1" class="fil6" d="M77665 39910c0-49 15-91 44-124 30-33 75-50 134-50s104 17 134 50c31 33 46 75 46 124 0 48-15 88-46 120-30 32-75 48-134 48s-104-16-134-48c-29-32-44-72-44-120z"/><path id="2" class="fil6" d="M79417 37797v244h-22c-117 0-215 20-293 61-78 40-141 94-189 161-49 67-84 145-107 232s-37 177-44 272c52-65 111-114 176-144 65-31 135-46 210-46 96 0 179 22 247 65s124 99 168 169 77 149 97 239c22 89 32 180 32 273 0 107-13 208-37 302-25 94-63 175-113 244s-113 124-188 163c-74 40-161 60-261 60-105 0-196-25-273-76s-140-117-190-199c-51-83-88-176-112-279-23-104-35-208-35-313v-135c0-106 4-211 13-316 9-106 26-206 49-302 25-95 59-185 102-267 43-83 98-154 165-215 68-60 149-107 245-142 96-34 208-51 338-51h22zm-316 1019c-39 0-77 8-112 24-35 15-67 37-98 64-29 28-56 60-79 96-22 37-41 77-54 120v113c0 101 9 190 29 268 19 77 44 142 76 194 31 53 68 92 108 119s81 40 122 40c53 0 100-13 141-37 41-26 75-62 103-108s50-101 64-164c15-63 22-133 22-208 0-67-7-133-19-195-14-63-33-118-60-166s-61-87-102-116c-40-29-87-44-141-44z"/><path class="fil4 str49" d="M75257 33711v-3878c377 0 753 55 1114 164 1640 491 2763 2001 2763 3714"/><g><path class="fil4 str50" d="M88001 38155v2391c-265 85-541 129-819 129-733 0-1327-593-1327-1324 0-732 594-1324 1327-1324 278 0 554 43 819 128z"/><path class="fil4 str50" d="M87081 39206c-64 0-115 51-115 115 0 63 51 114 115 114 63 0 114-51 114-114 0-64-51-115-114-115zM87895 39321h-443M87682 39109v441"/><path class="fil4 str50" d="M87116 40239c81-13 149-70 175-148 82-248 125-507 125-767 0-261-43-520-125-768-26-77-94-135-175-148-49-7-98-11-147-11-514 0-930 415-930 927 0 511 416 927 930 927 49 0 98-5 147-12z"/></g><g><path class="fil4 str51" d="M83813 34286h-3444v1717h3444z"/><path class="fil4 str51" d="M80955 34492h-345l-43 43v1202l43 43h345l43-43v-1202zM81265 35763h1636l43-43v-1202l-43-44h-1636l-43 44v1202z"/><path class="fil4 str52" d="M83194 35763h344l43-43v-1202l-43-44h-344l-43 44v1202z"/></g><g><path class="fil4 str53" d="M87197 35948c0-178 145-323 324-323h432v1595h-432c-179 0-324-145-324-323v-949zM86195 36181c-120 0-216 96-216 215 0 120 96 216 216 216 119 0 216-96 216-216 0-119-97-215-216-215z"/><path class="fil4 str53" d="M87197 36879c0 69 22 136 63 191-429 60-861 90-1294 90-277 0-541-118-725-324-106-118-165-272-165-431s59-312 165-431c184-206 448-323 725-323 433 0 865 30 1294 89-41 56-63 122-63 191v948z"/><path class="fil0 str11" d="M86009 35804c-395 0-716 269-716 601s321 602 716 602 716-270 716-602-321-601-716-601z"/></g><path class="fil4 str54" d="M57372 47905v3513c-341 0-681-50-1008-148-1486-446-2504-1813-2504-3365"/><path class="fil2 str55" d="M57521 47464v356h258v17917h356V47820h3818v-357c-7819 1-1909 0-4432 1z"/><path class="fil6" d="M49427 58452h-277v-1916l-475 212v-260l709-310h43z"/><path id="1" class="fil6" d="M50530 57180h179c59 0 110-9 154-29 45-20 81-47 109-82 29-34 51-75 65-122s22-99 22-155c0-129-26-228-77-296-52-68-129-102-231-102-49 0-92 9-132 27-38 19-71 44-98 78s-48 74-63 123c-15 48-23 102-23 160h-273c0-87 14-168 41-243 28-76 67-142 118-198 52-57 113-101 186-134 73-32 154-49 244-49 87 0 166 14 237 41 71 28 132 68 183 121 52 54 91 120 119 200s42 173 42 278c0 43-5 87-16 134s-28 92-52 137c-24 44-54 86-91 124-37 40-81 72-134 98 64 23 117 55 158 94 42 39 74 82 98 129 24 48 41 99 50 152 9 52 13 104 13 154 0 106-15 200-46 283-31 82-74 151-128 207-55 56-119 99-193 128-74 30-155 45-242 45-84 0-163-14-237-42-73-27-136-67-190-121-54-53-96-119-126-197-31-78-46-168-46-268h275c0 59 7 112 22 161 14 48 35 89 63 124s62 61 102 80 85 28 137 28c103 0 185-35 245-104 61-69 91-175 91-317 0-141-34-245-101-312-68-66-159-100-275-100h-179v-235z"/><path id="2" class="fil6" d="M51792 58301c0-50 15-91 44-125 30-33 75-49 133-49 59 0 104 16 135 49 30 34 46 75 46 125 0 48-16 87-46 119-31 33-76 49-135 49-58 0-103-16-133-49-29-32-44-71-44-119z"/><path id="3" class="fil6" d="M53752 56780c0 113-25 213-76 301-50 88-117 157-202 207 48 25 92 56 132 93s74 79 102 127c28 47 49 98 65 154 15 56 22 115 22 179 0 104-15 195-47 275-30 80-73 147-127 201-53 55-118 96-192 123-74 29-153 43-239 43s-165-14-239-43c-73-27-137-68-191-123-54-54-96-121-127-201s-47-171-47-275c0-64 8-123 22-179s36-107 63-155 61-90 99-128c39-37 83-68 132-93-85-50-152-118-201-205-48-89-73-188-73-301 0-99 14-186 42-264 28-77 67-142 117-195s109-93 177-121c69-28 145-42 226-42 83 0 158 14 227 42s128 68 178 121c49 53 88 118 115 195 28 78 42 165 42 264zm-232 1055c0-63-8-122-23-174-16-53-38-98-67-137-29-37-64-66-105-87s-87-31-137-31c-52 0-98 10-139 31-40 21-74 50-102 87-28 39-50 84-65 137-15 52-23 111-23 174 0 130 30 232 87 304 57 73 139 109 244 109 107 0 188-36 244-109 58-72 86-174 86-304zm-42-1051c0-56-6-108-20-155-14-48-33-89-58-123-25-35-56-62-91-82s-74-30-119-30c-43 0-82 9-117 27-36 19-66 44-90 78-25 34-45 74-59 123-14 48-20 102-20 162 0 58 6 111 20 159 13 47 33 88 57 122 26 34 56 60 92 78 35 18 74 27 117 27 45 0 84-9 120-27 35-18 66-44 90-78 25-34 44-75 58-122 14-48 20-101 20-159z"/></g></g></svg>